<svg xmlns="http://www.w3.org/2000/svg" xmlns:xlink="http://www.w3.org/1999/xlink" width="512" height="512" viewBox="0 0 512 512"><defs><style>.a{clip-path:url(#b);}.b{fill:none;}.c,.d{stroke:none;}.d{fill:#000;}</style><clipPath id="b"><rect width="512" height="512"/></clipPath></defs><g id="a" class="a"><g transform="translate(30 30)"><g class="b" transform="translate(0 -729)"><path class="c" d="M430,1179H20a20,20,0,0,1-20-20V749a20,20,0,0,1,20-20H430a20,20,0,0,1,20,20v410a20,20,0,0,1-20,20ZM225,909a45,45,0,1,0,45,45A45.051,45.051,0,0,0,225,909Z"/><path class="d" d="M 430.0002136230469 1163 C 431.0997009277344 1163 432.0513610839844 1162.605834960938 432.828369140625 1161.828857421875 C 433.6057739257812 1161.051391601562 434 1160.099731445312 434 1159.000244140625 L 434 748.9998779296875 C 434 747.9003295898438 433.6058654785156 746.9487915039062 432.8285827636719 746.1715087890625 C 432.0512084960938 745.3941650390625 431.0996398925781 745 430.0002136230469 745 L 19.99985694885254 745 C 18.90042877197266 745 17.94885635375977 745.3941650390625 17.17149925231934 746.1715087890625 C 16.39414215087891 746.9488525390625 16 747.9004516601562 16 748.9998779296875 L 16 1159.000244140625 C 16 1160.099731445312 16.39421463012695 1161.051391601562 17.17135620117188 1161.82861328125 C 17.94871520996094 1162.605834960938 18.90035629272461 1163 19.99985694885254 1163 L 430.0002136230469 1163 M 225 893 C 258.635498046875 893 286 920.364501953125 286 954 C 286 987.635498046875 258.635498046875 1015 225 1015 C 191.364501953125 1015 164 987.635498046875 164 954 C 164 920.364501953125 191.364501953125 893 225 893 M 430.0002136230469 1179 L 19.99985694885254 1179 C 14.65764331817627 1179 9.635213851928711 1176.919677734375 5.857785701751709 1173.142333984375 C 2.080357074737549 1169.364868164062 2.842170943040401e-14 1164.342407226562 2.842170943040401e-14 1159.000244140625 L 2.842170943040401e-14 748.9998779296875 C 2.842170943040401e-14 743.6575927734375 2.080357074737549 738.6351928710938 5.857785701751709 734.8577880859375 C 9.635143280029297 731.0803833007812 14.65764331817627 729 19.99985694885254 729 L 430.0002136230469 729 C 435.3423461914062 729 440.3648681640625 731.0803833007812 444.1422729492188 734.8577880859375 C 447.9197082519531 738.6351928710938 450 743.6575927734375 450 748.9998779296875 L 450 1159.000244140625 C 450 1164.342407226562 447.9197082519531 1169.36474609375 444.1422729492188 1173.142333984375 C 440.3647766113281 1176.919677734375 435.3423461914062 1179 430.0002136230469 1179 Z M 225 909 C 200.1868591308594 909 180 929.1868286132812 180 954 C 180 978.8131713867188 200.1868591308594 999 225 999 C 249.8131408691406 999 270 978.8131713867188 270 954 C 270 929.1868286132812 249.8131408691406 909 225 909 Z"/></g></g></g></svg>