<svg xmlns="http://www.w3.org/2000/svg" xmlns:xlink="http://www.w3.org/1999/xlink" width="512" height="512" viewBox="0 0 512 512"><defs><style>.a{clip-path:url(#b);}.b{fill:none;}.c,.d{stroke:none;}.d{fill:#000;}</style><clipPath id="b"><rect width="512" height="512"/></clipPath></defs><g id="a" class="a"><g transform="translate(30 30)"><g class="b" transform="translate(0 -729)"><path class="c" d="M430,1179H20a20,20,0,0,1-20-20V749a20,20,0,0,1,20-20H430a20,20,0,0,1,20,20v410a20,20,0,0,1-20,20ZM225,909a45,45,0,1,0,45,45A45.051,45.051,0,0,0,225,909Z"/><path class="d" d="M 430.000244140625 1174 C 434.0068664550781 1174 437.773681640625 1172.439697265625 440.606689453125 1169.606811523438 C 443.4397583007812 1166.773681640625 445 1163.0068359375 445 1159.000244140625 L 445 748.9998168945312 C 445 744.9931030273438 443.4397583007812 741.2263793945312 440.606689453125 738.393310546875 C 437.773681640625 735.5602416992188 434.0069274902344 734 430.000244140625 734 L 19.99981307983398 734 C 15.99312496185303 734 12.2263126373291 735.5602416992188 9.393312454223633 738.3933715820312 C 6.560249805450439 741.2263793945312 5 744.9931640625 5 748.9998168945312 L 5 1159.000244140625 C 5 1163.0068359375 6.560249805450439 1166.773681640625 9.393250465393066 1169.606689453125 C 12.22637462615967 1172.439697265625 15.99318790435791 1174 19.99981307983398 1174 L 430.000244140625 1174 M 225 904 C 252.570068359375 904 275 926.429931640625 275 954 C 275 981.570068359375 252.570068359375 1004 225 1004 C 197.429931640625 1004 175 981.570068359375 175 954 C 175 926.429931640625 197.429931640625 904 225 904 M 430.000244140625 1179 L 19.99981307983398 1179 C 14.65762519836426 1179 9.635250091552734 1176.919677734375 5.857749938964844 1173.142333984375 C 2.080374956130981 1169.364868164062 0 1164.342407226562 0 1159.000244140625 L 0 748.9998168945312 C 0 743.6576538085938 2.080374956130981 738.6351928710938 5.857749938964844 734.8577880859375 C 9.635187149047852 731.080322265625 14.65762519836426 729 19.99981307983398 729 L 430.000244140625 729 C 435.3423767089844 729 440.3648681640625 731.080322265625 444.1422424316406 734.8577880859375 C 447.919677734375 738.6351928710938 450 743.6576538085938 450 748.9998168945312 L 450 1159.000244140625 C 450 1164.342407226562 447.919677734375 1169.36474609375 444.1422424316406 1173.142333984375 C 440.3648071289062 1176.919677734375 435.3423767089844 1179 430.000244140625 1179 Z M 225 909 C 200.1868743896484 909 180 929.1868896484375 180 954 C 180 978.8131103515625 200.1868743896484 999 225 999 C 249.8131256103516 999 270 978.8131103515625 270 954 C 270 929.1868896484375 249.8131256103516 909 225 909 Z"/></g></g></g></svg>