<svg xmlns="http://www.w3.org/2000/svg" xmlns:xlink="http://www.w3.org/1999/xlink" width="512" height="512" viewBox="0 0 512 512"><defs><style>.a{clip-path:url(#b);}.b,.c{fill:none;stroke:#000;}.b{stroke-width:7px;}.c{stroke-width:5px;}</style><clipPath id="b"><rect width="512" height="512"/></clipPath></defs><g id="a" class="a"><g transform="translate(23.709 -5.278)"><circle class="b" cx="164.5" cy="164.5" r="164.5" transform="translate(0 232.638) rotate(-45)"/><path class="c" d="M1434.149-639s-135,184.113,0,330" transform="translate(-457.603 1591.802) rotate(-45)"/><path class="c" d="M1374.149-639s134.666,184.113,0,330" transform="translate(-393.152 1528.765) rotate(-45)"/><path class="c" d="M1420-639v330" transform="translate(-436.285 1570.484) rotate(-45)"/><path class="c" d="M1254-473h330" transform="translate(-436.285 1570.484) rotate(-45)"/><path class="c" d="M1293-579s112.574,136.424,252.038,0" transform="translate(-436.284 1570.484) rotate(-45)"/><path class="c" d="M1293-518.367s112.574-136.424,252.038,0" transform="translate(-329.972 1675.408) rotate(-45)"/><path class="b" d="M1420-669s-196.542,28.264-196,197.432" transform="translate(-1187.709 705.278)"/><path class="b" d="M1224-669c-.542,169.168,196,197.432,196,197.432V-446" transform="translate(-1187.709 901.278)"/><path d="M75,0l75,30H0Z" transform="translate(156.291 455.278)"/></g></g></svg>