<svg xmlns="http://www.w3.org/2000/svg" xmlns:xlink="http://www.w3.org/1999/xlink" width="512" height="512" viewBox="0 0 512 512"><defs><style>.a{clip-path:url(#b);}.b{fill:none;}.c,.d{stroke:none;}.d{fill:#000;}</style><clipPath id="b"><rect width="512" height="512"/></clipPath></defs><g id="a" class="a"><g transform="translate(30 22.001)"><g class="b" transform="translate(2910 -1346)"><path class="c" d="M-2460,1804l-180,0V1654h-90v150h-180V1504l225-158,105,73.732V1354h60v107.866l60,42.133v300Z"/><path class="d" d="M -2466.999755859375 1796.99951171875 L -2466.999755859375 1507.63623046875 L -2524.022705078125 1467.593994140625 L -2527 1465.503295898438 L -2527 1461.865234375 L -2527 1360.998779296875 L -2573.000244140625 1360.998779296875 L -2573.000244140625 1419.732299804688 L -2573.000244140625 1433.201293945312 L -2584.02294921875 1425.461059570312 L -2684.999755859375 1354.553955078125 L -2902.999755859375 1507.63623046875 L -2902.999755859375 1796.997802734375 L -2737.000732421875 1796.997802734375 L -2737.000732421875 1653.999389648438 L -2737.000732421875 1646.999389648438 L -2730.000732421875 1646.999389648438 L -2640.000732421875 1646.999389648438 L -2633.000732421875 1646.999389648438 L -2633.000732421875 1653.999389648438 L -2633.000732421875 1796.997924804688 L -2466.999755859375 1796.99951171875 M -2459.999755859375 1803.999633789062 L -2460.000732421875 1803.999633789062 L -2640.000732421875 1803.997802734375 L -2640.000732421875 1653.999389648438 L -2730.000732421875 1653.999389648438 L -2730.000732421875 1803.997802734375 L -2909.999755859375 1803.997802734375 L -2909.999755859375 1503.998168945312 L -2684.999755859375 1346.00048828125 L -2580.000244140625 1419.732299804688 L -2580.000244140625 1353.998779296875 L -2520 1353.998779296875 L -2520 1461.865234375 L -2459.999755859375 1503.998168945312 L -2459.999755859375 1803.997802734375 L -2459.999755859375 1803.999633789062 Z"/></g></g></g></svg>