<svg xmlns="http://www.w3.org/2000/svg" xmlns:xlink="http://www.w3.org/1999/xlink" width="512" height="512" viewBox="0 0 512 512"><defs><style>.a{clip-path:url(#b);}.b{fill:none;}.c,.d{stroke:none;}.d{fill:#000;}</style><clipPath id="b"><rect width="512" height="512"/></clipPath></defs><g id="a" class="a"><g transform="translate(30 22.001)"><g class="b" transform="translate(2910 -1346)"><path class="c" d="M-2460,1804l-180,0V1654h-90v150h-180V1504l225-158,105,73.732V1354h60v107.866l60,42.133v300Z"/><path class="d" d="M -2475.999755859375 1787.99951171875 L -2475.999755859375 1512.313598632812 L -2529.19482421875 1474.959228515625 L -2536 1470.1806640625 L -2536 1461.865234375 L -2536 1369.998779296875 L -2564.000244140625 1369.998779296875 L -2564.000244140625 1419.732299804688 L -2564.000244140625 1450.518432617188 L -2589.195068359375 1432.826416015625 L -2684.999755859375 1365.55126953125 L -2893.999755859375 1512.313598632812 L -2893.999755859375 1787.997802734375 L -2746.000732421875 1787.997802734375 L -2746.000732421875 1653.999389648438 L -2746.000732421875 1637.999389648438 L -2730.000732421875 1637.999389648438 L -2640.000732421875 1637.999389648438 L -2624.000732421875 1637.999389648438 L -2624.000732421875 1653.999389648438 L -2624.000732421875 1787.997924804688 L -2475.999755859375 1787.99951171875 M -2459.999755859375 1803.999633789062 L -2460.000732421875 1803.999633789062 L -2640.000732421875 1803.997802734375 L -2640.000732421875 1653.999389648438 L -2730.000732421875 1653.999389648438 L -2730.000732421875 1803.997802734375 L -2909.999755859375 1803.997802734375 L -2909.999755859375 1503.998168945312 L -2684.999755859375 1346.00048828125 L -2580.000244140625 1419.732299804688 L -2580.000244140625 1353.998779296875 L -2520 1353.998779296875 L -2520 1461.865234375 L -2459.999755859375 1503.998168945312 L -2459.999755859375 1803.997802734375 L -2459.999755859375 1803.999633789062 Z"/></g></g></g></svg>