<svg xmlns="http://www.w3.org/2000/svg" xmlns:xlink="http://www.w3.org/1999/xlink" width="512" height="512" viewBox="0 0 512 512"><defs><style>.a{clip-path:url(#b);}.b{fill:none;}.c,.d{stroke:none;}.d{fill:#000;}</style><clipPath id="b"><rect width="512" height="512"/></clipPath></defs><g id="a" class="a"><g transform="translate(30 30)"><g class="b" transform="translate(5238 -1346)"><path class="c" d="M-4952.5,1796H-5238V1603.755a29.923,29.923,0,0,1,4.6-15.973,30.114,30.114,0,0,1,11.972-10.861c-.047-1.977-.071-3.969-.071-5.919a242.9,242.9,0,0,1,4.255-45.346,236.079,236.079,0,0,1,12.208-42.234,230.587,230.587,0,0,1,19.315-38.22,224.068,224.068,0,0,1,25.581-33.3,215.191,215.191,0,0,1,31.007-27.474,205.5,205.5,0,0,1,35.585-20.744,198.228,198.228,0,0,1,39.325-13.111A197.091,197.091,0,0,1-5012,1346a197.077,197.077,0,0,1,42.221,4.571,198.152,198.152,0,0,1,39.325,13.111,205.468,205.468,0,0,1,35.588,20.744,215.04,215.04,0,0,1,31,27.474,224,224,0,0,1,25.584,33.3,230.659,230.659,0,0,1,19.315,38.22,236.2,236.2,0,0,1,12.207,42.234A242.893,242.893,0,0,1-4802.5,1571c0,2.333-.033,4.689-.1,7a30.207,30.207,0,0,1,10.58,10.739,29.986,29.986,0,0,1,4.02,15.012V1796h-164.5Zm-11.244-30-17.685-47.186A48.686,48.686,0,0,0-4968,1684.878c0-26.26-20.188-47.624-45-47.624s-45,21.364-45,47.624a48.993,48.993,0,0,0,14.886,35.389L-5060.255,1766Zm-234.48-195c0,.848.005,1.748.017,2.754h372.412c.011-.981.017-1.882.017-2.754,0-111.407-83.539-202.042-186.224-202.042S-5198.223,1459.594-5198.223,1571Z"/><path class="d" d="M -4798 1786.000610351562 L -4798 1603.754638671875 C -4798 1600.232299804688 -4798.92431640625 1596.774047851562 -4800.6728515625 1593.755126953125 C -4802.37841796875 1590.811157226562 -4804.82275390625 1588.330200195312 -4807.7412109375 1586.58056640625 L -4812.76220703125 1583.570678710938 L -4812.595703125 1577.71875 C -4812.5322265625 1575.499145507812 -4812.5009765625 1573.239501953125 -4812.5009765625 1571.0009765625 C -4812.5009765625 1556.359252929688 -4813.873046875 1541.732299804688 -4816.57958984375 1527.526733398438 C -4819.21533203125 1513.69287109375 -4823.14794921875 1500.086303710938 -4828.26806640625 1487.084838867188 C -4833.29296875 1474.325073242188 -4839.5087890625 1462.02490234375 -4846.74267578125 1450.526245117188 C -4853.9072265625 1439.137939453125 -4862.12939453125 1428.435180664062 -4871.181640625 1418.714111328125 C -4880.21337890625 1409.012084960938 -4890.158203125 1400.198852539062 -4900.73876953125 1392.520141601562 C -4911.39453125 1384.789184570312 -4922.78369140625 1378.14990234375 -4934.59033203125 1372.78662109375 C -4946.5869140625 1367.336059570312 -4959.14892578125 1363.147583007812 -4971.92529296875 1360.337768554688 C -4985.02490234375 1357.45947265625 -4998.50830078125 1356 -5012.00048828125 1356 C -5025.49169921875 1356 -5038.97509765625 1357.45947265625 -5052.07373046875 1360.33740234375 C -5064.84619140625 1363.146118164062 -5077.408203125 1367.334716796875 -5089.41064453125 1372.786743164062 C -5101.212890625 1378.148315429688 -5112.6015625 1384.78759765625 -5123.25927734375 1392.519653320312 C -5133.8349609375 1400.194091796875 -5143.78125 1409.007568359375 -5152.81982421875 1418.71435546875 C -5161.875 1428.44140625 -5170.0966796875 1439.144287109375 -5177.255859375 1450.526000976562 C -5184.4921875 1462.028686523438 -5190.7080078125 1474.32861328125 -5195.73095703125 1487.085327148438 C -5200.8525390625 1500.088500976562 -5204.78515625 1513.69482421875 -5207.42041015625 1527.5263671875 C -5210.126953125 1541.733520507812 -5211.4990234375 1556.360473632812 -5211.4990234375 1571.0009765625 C -5211.4990234375 1572.872924804688 -5211.47607421875 1574.783935546875 -5211.4306640625 1576.681030273438 L -5211.27880859375 1583.01806640625 L -5216.9453125 1585.859497070312 C -5220.21728515625 1587.500366210938 -5222.982421875 1590.00927734375 -5224.9384765625 1593.111328125 C -5226.94140625 1596.291625976562 -5228.00048828125 1599.971923828125 -5228.00048828125 1603.754638671875 L -5228.00048828125 1785.999267578125 L -5088.0009765625 1785.999267578125 L -4952.49951171875 1785.999267578125 L -4798 1786.000610351562 M -5054.6396484375 1722.525390625 C -5063.19482421875 1712.123046875 -5068 1698.740234375 -5068 1684.877807617188 C -5068 1653.103759765625 -5043.32763671875 1627.253662109375 -5013.0009765625 1627.253662109375 C -4982.6728515625 1627.253662109375 -4957.99951171875 1653.103759765625 -4957.99951171875 1684.877807617188 C -4957.99951171875 1698.109497070312 -4962.22021484375 1710.649169921875 -4969.99609375 1720.8203125 L -4954.37939453125 1762.489990234375 L -4949.31591796875 1775.99951171875 L -4963.7431640625 1775.99951171875 L -5060.2548828125 1775.99951171875 L -5074.68212890625 1775.99951171875 L -5069.61865234375 1762.48974609375 L -5054.6396484375 1722.525390625 M -5012.00048828125 1358.958862304688 C -4903.80224609375 1358.958862304688 -4815.77685546875 1454.08056640625 -4815.77685546875 1571.0009765625 L -4815.79443359375 1573.864501953125 L -4815.90283203125 1583.755004882812 L -4825.7939453125 1583.755004882812 L -5198.2060546875 1583.755004882812 L -5208.0908203125 1583.755004882812 L -5208.20556640625 1573.870971679688 L -5208.22314453125 1571.0009765625 C -5208.22314453125 1454.08056640625 -5120.1982421875 1358.958862304688 -5012.00048828125 1358.958862304688 M -4788 1796.000610351562 L -4952.49951171875 1795.999267578125 L -5088.0009765625 1795.999267578125 L -5238.00048828125 1795.999267578125 L -5238.00048828125 1603.754638671875 C -5238.00048828125 1598.080932617188 -5236.40869140625 1592.558471679688 -5233.3994140625 1587.781372070312 C -5230.46923828125 1583.134399414062 -5226.330078125 1579.378662109375 -5221.427734375 1576.92041015625 C -5221.47509765625 1574.943359375 -5221.4990234375 1572.951782226562 -5221.4990234375 1571.0009765625 C -5221.4990234375 1555.733642578125 -5220.0673828125 1540.47802734375 -5217.24365234375 1525.655029296875 C -5214.4921875 1511.2119140625 -5210.38427734375 1497.00146484375 -5205.03515625 1483.420654296875 C -5199.78466796875 1470.085693359375 -5193.28564453125 1457.226684570312 -5185.72021484375 1445.201049804688 C -5178.228515625 1433.291137695312 -5169.6220703125 1422.087036132812 -5160.13916015625 1411.900512695312 C -5150.662109375 1401.72314453125 -5140.22998046875 1392.479125976562 -5129.13232421875 1384.426025390625 C -5117.9306640625 1376.299438476562 -5105.9580078125 1369.320434570312 -5093.546875 1363.682250976562 C -5080.90869140625 1357.941528320312 -5067.677734375 1353.529907226562 -5054.2216796875 1350.57080078125 C -5040.4189453125 1347.5380859375 -5026.21240234375 1346 -5012.00048828125 1346 C -4997.78759765625 1346 -4983.5810546875 1347.5380859375 -4969.779296875 1350.57080078125 C -4956.32373046875 1353.529907226562 -4943.09228515625 1357.940185546875 -4930.4541015625 1363.682250976562 C -4918.03662109375 1369.322998046875 -4906.06396484375 1376.302001953125 -4894.8662109375 1384.426025390625 C -4883.76611328125 1392.481689453125 -4873.3349609375 1401.724487304688 -4863.8623046875 1411.900512695312 C -4854.38037109375 1422.083129882812 -4845.77392578125 1433.287109375 -4838.2783203125 1445.201049804688 C -4830.71533203125 1457.222778320312 -4824.21630859375 1470.081787109375 -4818.96337890625 1483.420654296875 C -4813.6142578125 1497.004150390625 -4809.5078125 1511.214477539062 -4806.75634765625 1525.655029296875 C -4803.9326171875 1540.476806640625 -4802.5009765625 1555.733642578125 -4802.5009765625 1571.0009765625 C -4802.5009765625 1573.334350585938 -4802.53369140625 1575.68994140625 -4802.599609375 1578.003662109375 C -4798.2314453125 1580.622192382812 -4794.57275390625 1584.3359375 -4792.02001953125 1588.742309570312 C -4789.3896484375 1593.2841796875 -4788 1598.475341796875 -4788 1603.754638671875 L -4788 1795.999267578125 L -4788 1796.000610351562 Z M -5013.0009765625 1637.253662109375 C -5037.8134765625 1637.253662109375 -5058 1658.618041992188 -5058 1684.877807617188 C -5058 1698.346801757812 -5052.57470703125 1711.24658203125 -5043.11376953125 1720.267211914062 L -5060.2548828125 1765.99951171875 L -4963.7431640625 1765.99951171875 L -4981.427734375 1718.813232421875 C -4972.7685546875 1709.7900390625 -4967.99951171875 1697.738159179688 -4967.99951171875 1684.877807617188 C -4967.99951171875 1658.618041992188 -4988.1875 1637.253662109375 -5013.0009765625 1637.253662109375 Z M -5012.00048828125 1368.958862304688 C -5114.68408203125 1368.958862304688 -5198.22314453125 1459.59423828125 -5198.22314453125 1571.0009765625 C -5198.22314453125 1571.848876953125 -5198.2177734375 1572.749267578125 -5198.2060546875 1573.755004882812 L -4825.7939453125 1573.755004882812 C -4825.783203125 1572.774291992188 -4825.77685546875 1571.87255859375 -4825.77685546875 1571.0009765625 C -4825.77685546875 1459.59423828125 -4909.31591796875 1368.958862304688 -5012.00048828125 1368.958862304688 Z"/></g></g></g></svg>