<svg xmlns="http://www.w3.org/2000/svg" xmlns:xlink="http://www.w3.org/1999/xlink" width="512" height="512" viewBox="0 0 512 512"><defs><style>.a{clip-path:url(#b);}.b{fill:none;}.c,.d{stroke:none;}.d{fill:#000;}</style><clipPath id="b"><rect width="512" height="512"/></clipPath></defs><g id="a" class="a"><g transform="translate(30 30)"><g class="b" transform="translate(5238 -1346)"><path class="c" d="M-4952.5,1796H-5238V1603.755a29.923,29.923,0,0,1,4.6-15.973,30.114,30.114,0,0,1,11.972-10.861c-.047-1.977-.071-3.969-.071-5.919a242.9,242.9,0,0,1,4.255-45.346,236.079,236.079,0,0,1,12.208-42.234,230.587,230.587,0,0,1,19.315-38.22,224.068,224.068,0,0,1,25.581-33.3,215.191,215.191,0,0,1,31.007-27.474,205.5,205.5,0,0,1,35.585-20.744,198.228,198.228,0,0,1,39.325-13.111A197.091,197.091,0,0,1-5012,1346a197.077,197.077,0,0,1,42.221,4.571,198.152,198.152,0,0,1,39.325,13.111,205.468,205.468,0,0,1,35.588,20.744,215.04,215.04,0,0,1,31,27.474,224,224,0,0,1,25.584,33.3,230.659,230.659,0,0,1,19.315,38.22,236.2,236.2,0,0,1,12.207,42.234A242.893,242.893,0,0,1-4802.5,1571c0,2.333-.033,4.689-.1,7a30.207,30.207,0,0,1,10.58,10.739,29.986,29.986,0,0,1,4.02,15.012V1796h-164.5Zm-11.244-30-17.685-47.186A48.686,48.686,0,0,0-4968,1684.878c0-26.26-20.188-47.624-45-47.624s-45,21.364-45,47.624a48.993,48.993,0,0,0,14.886,35.389L-5060.255,1766Zm-234.48-195c0,.848.005,1.748.017,2.754h372.412c.011-.981.017-1.882.017-2.754,0-111.407-83.539-202.042-186.224-202.042S-5198.223,1459.594-5198.223,1571Z"/><path class="d" d="M -4793 1791.000610351562 L -4793 1603.754638671875 C -4793 1599.353393554688 -4794.1572265625 1595.028686523438 -4796.3466796875 1591.248779296875 C -4798.4755859375 1587.573364257812 -4801.52685546875 1584.476196289062 -4805.17041015625 1582.292236328125 L -4807.68115234375 1580.787231445312 L -4807.59765625 1577.861206054688 C -4807.533203125 1575.610595703125 -4807.5009765625 1573.302612304688 -4807.5009765625 1571.0009765625 C -4807.5009765625 1556.04638671875 -4808.90283203125 1541.104736328125 -4811.66796875 1526.590942382812 C -4814.3623046875 1512.451538085938 -4818.3818359375 1498.543334960938 -4823.61572265625 1485.252685546875 C -4828.75390625 1472.204467773438 -4835.111328125 1459.624877929688 -4842.51025390625 1447.863647460938 C -4849.84228515625 1436.210327148438 -4858.2568359375 1425.256958007812 -4867.52197265625 1415.307250976562 C -4876.77294921875 1405.36962890625 -4886.9609375 1396.341186523438 -4897.80224609375 1388.47314453125 C -4908.7294921875 1380.54541015625 -4920.4111328125 1373.736206054688 -4932.5224609375 1368.234375 C -4944.8369140625 1362.639282226562 -4957.7333984375 1358.339477539062 -4970.8525390625 1355.454345703125 C -4984.3037109375 1352.498657226562 -4998.14794921875 1351 -5012.00048828125 1351 C -5025.85205078125 1351 -5039.6962890625 1352.498657226562 -5053.14794921875 1355.4541015625 C -5066.26123046875 1358.337890625 -5079.15771484375 1362.637817382812 -5091.47900390625 1368.234497070312 C -5103.5859375 1373.734497070312 -5115.2666015625 1380.543823242188 -5126.19580078125 1388.472900390625 C -5137.03173828125 1396.336181640625 -5147.22119140625 1405.36474609375 -5156.4794921875 1415.307373046875 C -5165.748046875 1425.263671875 -5174.162109375 1436.217041015625 -5181.48828125 1447.863525390625 C -5188.8896484375 1459.62890625 -5195.2470703125 1472.208374023438 -5200.3828125 1485.253051757812 C -5205.61865234375 1498.545776367188 -5209.638671875 1512.453735351562 -5212.33203125 1526.590698242188 C -5215.09716796875 1541.105590820312 -5216.4990234375 1556.04736328125 -5216.4990234375 1571.0009765625 C -5216.4990234375 1572.91357421875 -5216.4755859375 1574.864868164062 -5216.42919921875 1576.80078125 L -5216.353515625 1579.969360351562 L -5219.1865234375 1581.390014648438 C -5223.2734375 1583.439331054688 -5226.7255859375 1586.571655273438 -5229.1689453125 1590.446411132812 C -5231.67529296875 1594.425659179688 -5233.00048828125 1599.027587890625 -5233.00048828125 1603.754638671875 L -5233.00048828125 1790.999267578125 L -5088.0009765625 1790.999267578125 L -4952.49951171875 1790.999267578125 L -4793 1791.000610351562 M -5048.9130859375 1721.493774414062 C -5057.90185546875 1711.717895507812 -5063 1698.558349609375 -5063 1684.877807617188 C -5063 1655.860717773438 -5040.57080078125 1632.253662109375 -5013.0009765625 1632.253662109375 C -4985.43017578125 1632.253662109375 -4962.99951171875 1655.860717773438 -4962.99951171875 1684.877807617188 C -4962.99951171875 1697.939208984375 -4967.47998046875 1710.255493164062 -4975.67919921875 1719.904663085938 L -4959.06103515625 1764.244750976562 L -4956.52978515625 1770.99951171875 L -4963.7431640625 1770.99951171875 L -5060.2548828125 1770.99951171875 L -5067.46875 1770.99951171875 L -5064.93701171875 1764.24462890625 L -5048.9130859375 1721.493774414062 M -5012.00048828125 1363.958862304688 C -4999.02197265625 1363.958862304688 -4986.044921875 1365.382568359375 -4973.4306640625 1368.1904296875 C -4961.1416015625 1370.925903320312 -4949.05078125 1375.00634765625 -4937.49462890625 1380.318359375 C -4926.15869140625 1385.529174804688 -4915.224609375 1391.97607421875 -4904.99560546875 1399.47998046875 C -4894.8740234375 1406.905151367188 -4885.35595703125 1415.428588867188 -4876.70556640625 1424.813720703125 C -4868.0615234375 1434.191650390625 -4860.21435546875 1444.506225585938 -4853.380859375 1455.470947265625 C -4846.48486328125 1466.535766601562 -4840.56201171875 1478.359375 -4835.77685546875 1490.613403320312 C -4830.904296875 1503.090698242188 -4827.162109375 1516.141967773438 -4824.654296875 1529.404541015625 C -4822.08154296875 1543.009643554688 -4820.77685546875 1557.004638671875 -4820.77685546875 1571.0009765625 C -4820.77685546875 1571.836669921875 -4820.7822265625 1572.729125976562 -4820.79443359375 1573.809814453125 L -4820.8486328125 1578.755004882812 L -4825.7939453125 1578.755004882812 L -5198.2060546875 1578.755004882812 L -5203.1484375 1578.755004882812 L -5203.20556640625 1573.813110351562 C -5203.21728515625 1572.805541992188 -5203.22314453125 1571.8857421875 -5203.22314453125 1571.0009765625 C -5203.22314453125 1557.004638671875 -5201.91845703125 1543.009643554688 -5199.345703125 1529.404541015625 C -5196.837890625 1516.141967773438 -5193.095703125 1503.090698242188 -5188.22314453125 1490.613403320312 C -5183.43798828125 1478.359375 -5177.51513671875 1466.535766601562 -5170.619140625 1455.470947265625 C -5163.78564453125 1444.506225585938 -5155.9384765625 1434.191650390625 -5147.294921875 1424.813720703125 C -5138.64453125 1415.428588867188 -5129.12646484375 1406.905151367188 -5119.00439453125 1399.47998046875 C -5108.77587890625 1391.97607421875 -5097.841796875 1385.529174804688 -5086.505859375 1380.318359375 C -5074.94970703125 1375.00634765625 -5062.85888671875 1370.925903320312 -5050.56982421875 1368.1904296875 C -5037.95556640625 1365.382568359375 -5024.97900390625 1363.958862304688 -5012.00048828125 1363.958862304688 M -4788 1796.000610351562 L -4952.49951171875 1795.999267578125 L -5088.0009765625 1795.999267578125 L -5238.00048828125 1795.999267578125 L -5238.00048828125 1603.754638671875 C -5238.00048828125 1598.080932617188 -5236.40869140625 1592.558471679688 -5233.3994140625 1587.781372070312 C -5230.46923828125 1583.134399414062 -5226.330078125 1579.378662109375 -5221.427734375 1576.92041015625 C -5221.47509765625 1574.943359375 -5221.4990234375 1572.951782226562 -5221.4990234375 1571.0009765625 C -5221.4990234375 1555.733642578125 -5220.0673828125 1540.47802734375 -5217.24365234375 1525.655029296875 C -5214.4921875 1511.2119140625 -5210.38427734375 1497.00146484375 -5205.03515625 1483.420654296875 C -5199.78466796875 1470.085693359375 -5193.28564453125 1457.226684570312 -5185.72021484375 1445.201049804688 C -5178.228515625 1433.291137695312 -5169.6220703125 1422.087036132812 -5160.13916015625 1411.900512695312 C -5150.662109375 1401.72314453125 -5140.22998046875 1392.479125976562 -5129.13232421875 1384.426025390625 C -5117.9306640625 1376.299438476562 -5105.9580078125 1369.320434570312 -5093.546875 1363.682250976562 C -5080.90869140625 1357.941528320312 -5067.677734375 1353.529907226562 -5054.2216796875 1350.57080078125 C -5040.4189453125 1347.5380859375 -5026.21240234375 1346 -5012.00048828125 1346 C -4997.78759765625 1346 -4983.5810546875 1347.5380859375 -4969.779296875 1350.57080078125 C -4956.32373046875 1353.529907226562 -4943.09228515625 1357.940185546875 -4930.4541015625 1363.682250976562 C -4918.03662109375 1369.322998046875 -4906.06396484375 1376.302001953125 -4894.8662109375 1384.426025390625 C -4883.76611328125 1392.481689453125 -4873.3349609375 1401.724487304688 -4863.8623046875 1411.900512695312 C -4854.38037109375 1422.083129882812 -4845.77392578125 1433.287109375 -4838.2783203125 1445.201049804688 C -4830.71533203125 1457.222778320312 -4824.21630859375 1470.081787109375 -4818.96337890625 1483.420654296875 C -4813.6142578125 1497.004150390625 -4809.5078125 1511.214477539062 -4806.75634765625 1525.655029296875 C -4803.9326171875 1540.476806640625 -4802.5009765625 1555.733642578125 -4802.5009765625 1571.0009765625 C -4802.5009765625 1573.334350585938 -4802.53369140625 1575.68994140625 -4802.599609375 1578.003662109375 C -4798.2314453125 1580.622192382812 -4794.57275390625 1584.3359375 -4792.02001953125 1588.742309570312 C -4789.3896484375 1593.2841796875 -4788 1598.475341796875 -4788 1603.754638671875 L -4788 1795.999267578125 L -4788 1796.000610351562 Z M -5013.0009765625 1637.253662109375 C -5037.8134765625 1637.253662109375 -5058 1658.618041992188 -5058 1684.877807617188 C -5058 1698.346801757812 -5052.57470703125 1711.24658203125 -5043.11376953125 1720.267211914062 L -5060.2548828125 1765.99951171875 L -4963.7431640625 1765.99951171875 L -4981.427734375 1718.813232421875 C -4972.7685546875 1709.7900390625 -4967.99951171875 1697.738159179688 -4967.99951171875 1684.877807617188 C -4967.99951171875 1658.618041992188 -4988.1875 1637.253662109375 -5013.0009765625 1637.253662109375 Z M -5012.00048828125 1368.958862304688 C -5114.68408203125 1368.958862304688 -5198.22314453125 1459.59423828125 -5198.22314453125 1571.0009765625 C -5198.22314453125 1571.848876953125 -5198.2177734375 1572.749267578125 -5198.2060546875 1573.755004882812 L -4825.7939453125 1573.755004882812 C -4825.783203125 1572.774291992188 -4825.77685546875 1571.87255859375 -4825.77685546875 1571.0009765625 C -4825.77685546875 1459.59423828125 -4909.31591796875 1368.958862304688 -5012.00048828125 1368.958862304688 Z"/></g></g></g></svg>