<svg xmlns="http://www.w3.org/2000/svg" xmlns:xlink="http://www.w3.org/1999/xlink" width="512" height="512" viewBox="0 0 512 512"><defs><style>.a{clip-path:url(#b);}.b{fill:none;}.c,.d{stroke:none;}.d{fill:#000;}</style><clipPath id="b"><rect width="512" height="512"/></clipPath></defs><g id="a" class="a"><g transform="translate(91 30)"><g class="b" transform="translate(4656 -1346)"><path class="c" d="M-4370,1784h-242a43.723,43.723,0,0,1-17.126-3.458,43.856,43.856,0,0,1-13.986-9.43,43.857,43.857,0,0,1-9.43-13.986A43.727,43.727,0,0,1-4656,1740V1626.5l30.917-9.58A30.167,30.167,0,0,0-4598,1634a30.034,30.034,0,0,0,30-30,30.034,30.034,0,0,0-30-30,29.836,29.836,0,0,0-26.923,16.752l-29.856-9.252H-4656V1468a43.728,43.728,0,0,1,3.458-17.127,43.86,43.86,0,0,1,9.43-13.986,43.852,43.852,0,0,1,13.986-9.43A43.724,43.724,0,0,1-4612,1424h101.341l6.515-21.025a30.08,30.08,0,0,1-12.17-10.869A29.906,29.906,0,0,1-4521,1376a29.806,29.806,0,0,1,2.357-11.677,29.9,29.9,0,0,1,6.429-9.536,29.894,29.894,0,0,1,9.536-6.429A29.814,29.814,0,0,1-4491,1346a29.813,29.813,0,0,1,11.677,2.358,29.894,29.894,0,0,1,9.536,6.429,29.909,29.909,0,0,1,6.43,9.536A29.806,29.806,0,0,1-4461,1376a30,30,0,0,1-18.062,27.531l6.343,20.469H-4370a43.73,43.73,0,0,1,17.127,3.458,43.861,43.861,0,0,1,13.986,9.43,43.859,43.859,0,0,1,9.429,13.986A43.72,43.72,0,0,1-4326,1468v272a43.719,43.719,0,0,1-3.458,17.127,43.86,43.86,0,0,1-9.429,13.986,43.865,43.865,0,0,1-13.986,9.43A43.73,43.73,0,0,1-4370,1784Z"/><path class="d" d="M -4370 1778.999877929688 C -4364.732421875 1778.999877929688 -4359.62548828125 1777.969360351562 -4354.8203125 1775.937255859375 C -4350.17724609375 1773.973266601562 -4346.005859375 1771.160400390625 -4342.42236328125 1767.577392578125 C -4338.8388671875 1763.993286132812 -4336.0263671875 1759.82177734375 -4334.0625 1755.178588867188 C -4332.0302734375 1750.374877929688 -4331 1745.26806640625 -4331 1740 L -4331 1467.999633789062 C -4331 1462.731689453125 -4332.0302734375 1457.624877929688 -4334.0625 1452.82080078125 C -4336.0263671875 1448.177612304688 -4338.83935546875 1444.006225585938 -4342.421875 1440.4228515625 C -4346.005859375 1436.839111328125 -4350.17724609375 1434.026245117188 -4354.8203125 1432.0625 C -4359.62548828125 1430.030151367188 -4364.73291015625 1428.999633789062 -4370 1428.999633789062 L -4472.71826171875 1428.999633789062 L -4476.4033203125 1428.999633789062 L -4477.494140625 1425.479614257812 L -4483.8369140625 1405.010986328125 L -4485.16357421875 1400.730102539062 L -4481.052734375 1398.94482421875 C -4471.908203125 1394.973510742188 -4465.99951171875 1385.967041015625 -4465.99951171875 1375.999877929688 C -4465.99951171875 1372.621948242188 -4466.65966796875 1369.3486328125 -4467.9619140625 1366.270751953125 C -4469.220703125 1363.294677734375 -4471.0244140625 1360.620361328125 -4473.32275390625 1358.321899414062 C -4475.619140625 1356.024780273438 -4478.29296875 1354.221557617188 -4481.27001953125 1352.96240234375 C -4484.34912109375 1351.660034179688 -4487.62255859375 1350.999755859375 -4490.99951171875 1350.999755859375 C -4494.37646484375 1350.999755859375 -4497.650390625 1351.660034179688 -4500.7294921875 1352.962280273438 C -4503.7060546875 1354.221435546875 -4506.38037109375 1356.024658203125 -4508.67724609375 1358.322265625 C -4510.97509765625 1360.6201171875 -4512.7783203125 1363.294189453125 -4514.037109375 1366.270874023438 C -4515.33935546875 1369.348754882812 -4515.99951171875 1372.6220703125 -4515.99951171875 1375.999877929688 C -4515.99951171875 1380.774780273438 -4514.65087890625 1385.414672851562 -4512.0986328125 1389.417846679688 C -4509.6103515625 1393.321533203125 -4506.1015625 1396.455688476562 -4501.95166015625 1398.481567382812 L -4498.1005859375 1400.361450195312 L -4499.369140625 1404.45458984375 L -4505.8837890625 1425.4794921875 L -4506.974609375 1428.999633789062 L -4510.65966796875 1428.999633789062 L -4612.00048828125 1428.999633789062 C -4617.267578125 1428.999633789062 -4622.37451171875 1430.030151367188 -4627.17919921875 1432.062377929688 C -4631.82275390625 1434.026611328125 -4635.994140625 1436.83935546875 -4639.5771484375 1440.422729492188 C -4643.15966796875 1444.005126953125 -4645.97265625 1448.176635742188 -4647.9375 1452.820678710938 C -4649.9697265625 1457.625854492188 -4651 1462.732788085938 -4651 1467.999633789062 L -4650.9990234375 1577.436889648438 L -4627.26806640625 1584.790771484375 C -4624.48291015625 1580.534423828125 -4620.8203125 1576.93798828125 -4616.509765625 1574.255859375 C -4610.98388671875 1570.817626953125 -4604.58349609375 1569.000244140625 -4598.00048828125 1569.000244140625 C -4578.701171875 1569.000244140625 -4563.00048828125 1584.701171875 -4563.00048828125 1604.000366210938 C -4563.00048828125 1623.299560546875 -4578.701171875 1639.00048828125 -4598.00048828125 1639.00048828125 C -4609.94091796875 1639.00048828125 -4621.0830078125 1632.797973632812 -4627.46435546875 1622.892822265625 L -4651 1630.185791015625 L -4651 1740 C -4651 1745.266967773438 -4649.9697265625 1750.373901367188 -4647.9375 1755.1787109375 C -4645.9736328125 1759.822143554688 -4643.16064453125 1763.993530273438 -4639.5771484375 1767.5771484375 C -4635.994140625 1771.16015625 -4631.82275390625 1773.972900390625 -4627.17919921875 1775.937255859375 C -4622.37451171875 1777.969482421875 -4617.267578125 1778.999877929688 -4612.00048828125 1778.999877929688 L -4370 1778.999877929688 M -4370 1783.999877929688 L -4612.00048828125 1783.999877929688 C -4617.9404296875 1783.999877929688 -4623.70263671875 1782.836547851562 -4629.126953125 1780.542236328125 C -4634.36669921875 1778.325805664062 -4639.072265625 1775.153198242188 -4643.11279296875 1771.112548828125 C -4647.1533203125 1767.071899414062 -4650.326171875 1762.366333007812 -4652.54248046875 1757.126586914062 C -4654.8369140625 1751.701538085938 -4656 1745.939331054688 -4656 1740 L -4656 1626.500610351562 L -4625.0830078125 1616.920532226562 C -4620.12451171875 1627.29638671875 -4609.49462890625 1634.00048828125 -4598.00048828125 1634.00048828125 C -4581.45849609375 1634.00048828125 -4568.00048828125 1620.54248046875 -4568.00048828125 1604.000366210938 C -4568.00048828125 1587.458251953125 -4581.45849609375 1574.000244140625 -4598.00048828125 1574.000244140625 C -4609.51220703125 1574.000244140625 -4619.82861328125 1580.419067382812 -4624.923828125 1590.751831054688 L -4654.7802734375 1581.499633789062 L -4655.9990234375 1581.499633789062 L -4656 1467.999633789062 C -4656 1462.060424804688 -4654.8369140625 1456.298217773438 -4652.54248046875 1450.873046875 C -4650.32568359375 1445.633056640625 -4647.1533203125 1440.927490234375 -4643.11279296875 1436.887084960938 C -4639.072265625 1432.846313476562 -4634.36669921875 1429.673706054688 -4629.126953125 1427.457397460938 C -4623.70263671875 1425.1630859375 -4617.9404296875 1423.999633789062 -4612.00048828125 1423.999633789062 L -4510.65966796875 1423.999633789062 L -4504.14501953125 1402.974731445312 C -4509.123046875 1400.544555664062 -4513.33154296875 1396.78564453125 -4516.31494140625 1392.105590820312 C -4519.37939453125 1387.29833984375 -4520.99951171875 1381.729125976562 -4520.99951171875 1375.999877929688 C -4520.99951171875 1371.949584960938 -4520.20654296875 1368.020751953125 -4518.64208984375 1364.32275390625 C -4517.13134765625 1360.750366210938 -4514.96826171875 1357.542114257812 -4512.212890625 1354.786743164062 C -4509.45849609375 1352.03173828125 -4506.25 1349.868530273438 -4502.67724609375 1348.357299804688 C -4498.978515625 1346.79296875 -4495.0498046875 1345.999755859375 -4490.99951171875 1345.999755859375 C -4486.94970703125 1345.999755859375 -4483.02099609375 1346.79296875 -4479.322265625 1348.357299804688 C -4475.74951171875 1349.868530273438 -4472.541015625 1352.03173828125 -4469.78662109375 1354.786743164062 C -4467.03173828125 1357.541870117188 -4464.8681640625 1360.750244140625 -4463.35693359375 1364.32275390625 C -4461.79248046875 1368.020751953125 -4460.99951171875 1371.949462890625 -4460.99951171875 1375.999877929688 C -4460.99951171875 1387.959228515625 -4468.0888671875 1398.765869140625 -4479.06103515625 1403.531005859375 L -4472.71826171875 1423.999633789062 L -4370 1423.999633789062 C -4364.06005859375 1423.999633789062 -4358.29736328125 1425.1630859375 -4352.87255859375 1427.457397460938 C -4347.6337890625 1429.67333984375 -4342.92822265625 1432.845947265625 -4338.88671875 1436.887084960938 C -4334.845703125 1440.928588867188 -4331.67333984375 1445.634155273438 -4329.45751953125 1450.873046875 C -4327.1630859375 1456.297119140625 -4326 1462.059326171875 -4326 1467.999633789062 L -4326 1740 C -4326 1745.9404296875 -4327.1630859375 1751.70263671875 -4329.45751953125 1757.126586914062 C -4331.67333984375 1762.365478515625 -4334.845703125 1767.070922851562 -4338.88671875 1771.112548828125 C -4342.92822265625 1775.153564453125 -4347.6337890625 1778.326171875 -4352.87255859375 1780.542236328125 C -4358.29736328125 1782.836547851562 -4364.06005859375 1783.999877929688 -4370 1783.999877929688 Z"/></g></g></g></svg>