<svg xmlns="http://www.w3.org/2000/svg" xmlns:xlink="http://www.w3.org/1999/xlink" width="512" height="512" viewBox="0 0 512 512"><defs><style>.a{clip-path:url(#b);}.b{fill:none;}.c,.d{stroke:none;}.d{fill:#000;}</style><clipPath id="b"><rect width="512" height="512"/></clipPath></defs><g id="a" class="a"><g transform="translate(91 30)"><g class="b" transform="translate(4656 -1346)"><path class="c" d="M-4370,1784h-242a43.723,43.723,0,0,1-17.126-3.458,43.856,43.856,0,0,1-13.986-9.43,43.857,43.857,0,0,1-9.43-13.986A43.727,43.727,0,0,1-4656,1740V1626.5l30.917-9.58A30.167,30.167,0,0,0-4598,1634a30.034,30.034,0,0,0,30-30,30.034,30.034,0,0,0-30-30,29.836,29.836,0,0,0-26.923,16.752l-29.856-9.252H-4656V1468a43.728,43.728,0,0,1,3.458-17.127,43.86,43.86,0,0,1,9.43-13.986,43.852,43.852,0,0,1,13.986-9.43A43.724,43.724,0,0,1-4612,1424h101.341l6.515-21.025a30.08,30.08,0,0,1-12.17-10.869A29.906,29.906,0,0,1-4521,1376a29.806,29.806,0,0,1,2.357-11.677,29.9,29.9,0,0,1,6.429-9.536,29.894,29.894,0,0,1,9.536-6.429A29.814,29.814,0,0,1-4491,1346a29.813,29.813,0,0,1,11.677,2.358,29.894,29.894,0,0,1,9.536,6.429,29.909,29.909,0,0,1,6.43,9.536A29.806,29.806,0,0,1-4461,1376a30,30,0,0,1-18.062,27.531l6.343,20.469H-4370a43.73,43.73,0,0,1,17.127,3.458,43.861,43.861,0,0,1,13.986,9.43,43.859,43.859,0,0,1,9.429,13.986A43.72,43.72,0,0,1-4326,1468v272a43.719,43.719,0,0,1-3.458,17.127,43.86,43.86,0,0,1-9.429,13.986,43.865,43.865,0,0,1-13.986,9.43A43.73,43.73,0,0,1-4370,1784Z"/><path class="d" d="M -4370 1767.999877929688 C -4366.212890625 1767.999877929688 -4362.546875 1767.26171875 -4359.10595703125 1765.806518554688 C -4355.77392578125 1764.396850585938 -4352.77734375 1762.375366210938 -4350.201171875 1759.7998046875 C -4347.6240234375 1757.22216796875 -4345.60302734375 1754.225830078125 -4344.193359375 1750.893188476562 C -4342.73779296875 1747.45263671875 -4342 1743.787719726562 -4342 1740 L -4342 1467.999633789062 C -4342 1464.2119140625 -4342.73779296875 1460.546997070312 -4344.193359375 1457.10595703125 C -4345.60302734375 1453.773681640625 -4347.6240234375 1450.77734375 -4350.19970703125 1448.201293945312 C -4352.77734375 1445.624145507812 -4355.77392578125 1443.602783203125 -4359.10498046875 1442.193725585938 C -4362.54736328125 1440.73779296875 -4366.212890625 1439.999633789062 -4370 1439.999633789062 L -4472.71826171875 1439.999633789062 L -4484.5107421875 1439.999633789062 L -4488.00146484375 1428.735473632812 L -4491.68896484375 1416.834716796875 L -4495.37646484375 1428.735229492188 L -4498.86669921875 1439.999633789062 L -4510.65966796875 1439.999633789062 L -4612.00048828125 1439.999633789062 C -4615.787109375 1439.999633789062 -4619.4521484375 1440.73779296875 -4622.89404296875 1442.193359375 C -4626.2265625 1443.60302734375 -4629.22265625 1445.6240234375 -4631.79931640625 1448.201049804688 C -4634.37548828125 1450.776977539062 -4636.396484375 1453.7734375 -4637.80615234375 1457.105346679688 C -4639.26171875 1460.54736328125 -4640 1464.212768554688 -4640 1467.99951171875 L -4639.9990234375 1569.329467773438 L -4631.16015625 1572.068603515625 C -4622.6435546875 1563.178833007812 -4610.80419921875 1558.000244140625 -4598.00048828125 1558.000244140625 C -4572.63623046875 1558.000244140625 -4552.00048828125 1578.635864257812 -4552.00048828125 1604.000366210938 C -4552.00048828125 1629.364868164062 -4572.63623046875 1650.00048828125 -4598.00048828125 1650.00048828125 C -4610.75048828125 1650.00048828125 -4622.806640625 1644.62109375 -4631.37744140625 1635.621459960938 L -4640 1638.293334960938 L -4640 1740 C -4640 1743.786987304688 -4639.26171875 1747.452270507812 -4637.806640625 1750.893432617188 C -4636.39697265625 1754.225830078125 -4634.37548828125 1757.22216796875 -4631.798828125 1759.799072265625 C -4629.22265625 1762.37548828125 -4626.2265625 1764.396606445312 -4622.89404296875 1765.80615234375 C -4619.45263671875 1767.261840820312 -4615.78759765625 1767.999877929688 -4612.00048828125 1767.999877929688 L -4370 1767.999877929688 M -4491.34130859375 1391.420532226562 L -4485.4345703125 1388.855346679688 C -4480.310546875 1386.6298828125 -4476.99951171875 1381.583862304688 -4476.99951171875 1375.999877929688 C -4476.99951171875 1374.102416992188 -4477.3671875 1372.271118164062 -4478.0927734375 1370.55615234375 C -4478.79736328125 1368.890991210938 -4479.80908203125 1367.391723632812 -4481.1015625 1366.09912109375 C -4482.3916015625 1364.80908203125 -4483.8896484375 1363.797729492188 -4485.5546875 1363.093505859375 C -4487.27099609375 1362.367797851562 -4489.1025390625 1361.999755859375 -4490.99951171875 1361.999755859375 C -4492.896484375 1361.999755859375 -4494.728515625 1362.367797851562 -4496.4443359375 1363.093383789062 C -4498.10986328125 1363.797729492188 -4499.60791015625 1364.80908203125 -4500.8994140625 1366.1005859375 C -4502.18994140625 1367.391479492188 -4503.20166015625 1368.890014648438 -4503.90673828125 1370.556884765625 C -4504.6318359375 1372.271118164062 -4504.99951171875 1374.102416992188 -4504.99951171875 1375.999877929688 C -4504.99951171875 1378.67626953125 -4504.2470703125 1381.271484375 -4502.8232421875 1383.505126953125 C -4501.42431640625 1385.69921875 -4499.4541015625 1387.459838867188 -4497.1259765625 1388.596557617188 L -4491.34130859375 1391.420532226562 M -4370 1783.999877929688 L -4612.00048828125 1783.999877929688 C -4617.9404296875 1783.999877929688 -4623.70263671875 1782.836547851562 -4629.126953125 1780.542236328125 C -4634.36669921875 1778.325805664062 -4639.072265625 1775.153198242188 -4643.11279296875 1771.112548828125 C -4647.1533203125 1767.071899414062 -4650.326171875 1762.366333007812 -4652.54248046875 1757.126586914062 C -4654.8369140625 1751.701538085938 -4656 1745.939331054688 -4656 1740 L -4656 1626.500610351562 L -4625.0830078125 1616.920532226562 C -4620.12451171875 1627.29638671875 -4609.49462890625 1634.00048828125 -4598.00048828125 1634.00048828125 C -4581.45849609375 1634.00048828125 -4568.00048828125 1620.54248046875 -4568.00048828125 1604.000366210938 C -4568.00048828125 1587.458251953125 -4581.45849609375 1574.000244140625 -4598.00048828125 1574.000244140625 C -4609.51220703125 1574.000244140625 -4619.82861328125 1580.419067382812 -4624.923828125 1590.751831054688 L -4654.7802734375 1581.499633789062 L -4655.9990234375 1581.499633789062 L -4656 1467.999633789062 C -4656 1462.060424804688 -4654.8369140625 1456.298217773438 -4652.54248046875 1450.873046875 C -4650.32568359375 1445.633056640625 -4647.1533203125 1440.927490234375 -4643.11279296875 1436.887084960938 C -4639.072265625 1432.846313476562 -4634.36669921875 1429.673706054688 -4629.126953125 1427.457397460938 C -4623.70263671875 1425.1630859375 -4617.9404296875 1423.999633789062 -4612.00048828125 1423.999633789062 L -4510.65966796875 1423.999633789062 L -4504.14501953125 1402.974731445312 C -4509.123046875 1400.544555664062 -4513.33154296875 1396.78564453125 -4516.31494140625 1392.105590820312 C -4519.37939453125 1387.29833984375 -4520.99951171875 1381.729125976562 -4520.99951171875 1375.999877929688 C -4520.99951171875 1371.949584960938 -4520.20654296875 1368.020751953125 -4518.64208984375 1364.32275390625 C -4517.13134765625 1360.750366210938 -4514.96826171875 1357.542114257812 -4512.212890625 1354.786743164062 C -4509.45849609375 1352.03173828125 -4506.25 1349.868530273438 -4502.67724609375 1348.357299804688 C -4498.978515625 1346.79296875 -4495.0498046875 1345.999755859375 -4490.99951171875 1345.999755859375 C -4486.94970703125 1345.999755859375 -4483.02099609375 1346.79296875 -4479.322265625 1348.357299804688 C -4475.74951171875 1349.868530273438 -4472.541015625 1352.03173828125 -4469.78662109375 1354.786743164062 C -4467.03173828125 1357.541870117188 -4464.8681640625 1360.750244140625 -4463.35693359375 1364.32275390625 C -4461.79248046875 1368.020751953125 -4460.99951171875 1371.949462890625 -4460.99951171875 1375.999877929688 C -4460.99951171875 1387.959228515625 -4468.0888671875 1398.765869140625 -4479.06103515625 1403.531005859375 L -4472.71826171875 1423.999633789062 L -4370 1423.999633789062 C -4364.06005859375 1423.999633789062 -4358.29736328125 1425.1630859375 -4352.87255859375 1427.457397460938 C -4347.6337890625 1429.67333984375 -4342.92822265625 1432.845947265625 -4338.88671875 1436.887084960938 C -4334.845703125 1440.928588867188 -4331.67333984375 1445.634155273438 -4329.45751953125 1450.873046875 C -4327.1630859375 1456.297119140625 -4326 1462.059326171875 -4326 1467.999633789062 L -4326 1740 C -4326 1745.9404296875 -4327.1630859375 1751.70263671875 -4329.45751953125 1757.126586914062 C -4331.67333984375 1762.365478515625 -4334.845703125 1767.070922851562 -4338.88671875 1771.112548828125 C -4342.92822265625 1775.153564453125 -4347.6337890625 1778.326171875 -4352.87255859375 1780.542236328125 C -4358.29736328125 1782.836547851562 -4364.06005859375 1783.999877929688 -4370 1783.999877929688 Z"/></g></g></g></svg>