<svg xmlns="http://www.w3.org/2000/svg" xmlns:xlink="http://www.w3.org/1999/xlink" width="512" height="512" viewBox="0 0 512 512"><defs><style>.a{clip-path:url(#b);}.b{fill:none;}.c,.d{stroke:none;}.d{fill:#000;}</style><clipPath id="b"><rect width="512" height="512"/></clipPath></defs><g id="a" class="a"><g transform="translate(30 30)"><g class="b" transform="translate(3492 -1346)"><path class="c" d="M-3312,1796V1526h-180l1-90h179v-90h90v90h181l-1,90h-180v270Z"/><path class="d" d="M -3238 1780.00048828125 L -3238 1526.00048828125 L -3238 1510.00048828125 L -3222 1510.00048828125 L -3057.8232421875 1510.00048828125 L -3057.178955078125 1452.00048828125 L -3222 1452.00048828125 L -3238 1452.00048828125 L -3238 1436.00048828125 L -3238 1362.00048828125 L -3296 1362.00048828125 L -3296 1436.00048828125 L -3296 1452.00048828125 L -3312 1452.00048828125 L -3475.177001953125 1452.00048828125 L -3475.8212890625 1510.00048828125 L -3312 1510.00048828125 L -3296 1510.00048828125 L -3296 1526.00048828125 L -3296 1780.00048828125 L -3238 1780.00048828125 M -3222 1796.00048828125 L -3312 1796.00048828125 L -3312 1526.00048828125 L -3492 1526.00048828125 L -3491.000244140625 1436.00048828125 L -3312 1436.00048828125 L -3312 1346.00048828125 L -3222 1346.00048828125 L -3222 1436.00048828125 L -3041.000244140625 1436.00048828125 L -3042 1526.00048828125 L -3222 1526.00048828125 L -3222 1796.00048828125 Z"/></g></g></g></svg>