<svg xmlns="http://www.w3.org/2000/svg" xmlns:xlink="http://www.w3.org/1999/xlink" width="40" height="40" viewBox="0 0 40 40"><defs><style>.a{clip-path:url(#b);}.b{fill:none;}.b,.c{stroke:#000;stroke-linecap:round;}</style><clipPath id="b"><rect width="40" height="40"/></clipPath></defs><g id="a" class="a"><path class="b" d="M-547.334-1171c.089,11.8-25.962,17.93-30.964,0" transform="translate(583 1193)"/><path class="c" d="M-581.01-1168.381s.892-2.565,2.7-2.883a11.964,11.964,0,0,1,4.315.388l-6.071-4.467Z" transform="translate(370.735 1275.479) rotate(10)"/><path class="b" d="M-576.7-1159.931c.015-7.164,8.093-12.28,17.427-10.782,6.377.57,10.753,4.169,13.118,11.159" transform="translate(581.288 1174.658)"/><path class="c" d="M-574-1175.342s-.892,2.565-2.7,2.883a11.964,11.964,0,0,1-4.315-.388l6.071,4.467Z" transform="translate(421.413 1263.741) rotate(9)"/></g></svg>