<svg xmlns="http://www.w3.org/2000/svg" xmlns:xlink="http://www.w3.org/1999/xlink" width="512" height="512" viewBox="0 0 512 512"><defs><style>.a{clip-path:url(#b);}.b{fill:none;}.c,.d{stroke:none;}.d{fill:#000;}</style><clipPath id="b"><rect width="512" height="512"/></clipPath></defs><g id="a" class="a"><g transform="translate(59.008 22.956)"><g class="b" transform="translate(2328 -1346)"><path class="c" d="M-2236.971,1820.5l-87.051-65.6a10.011,10.011,0,0,1-1.969-14l60.783-80.662a9.907,9.907,0,0,1,3.6-2.97,10.1,10.1,0,0,1,4.4-1.012,9.914,9.914,0,0,1,6.01,2.014l87.051,65.6a9.932,9.932,0,0,1,3.885,6.594,9.933,9.933,0,0,1-1.917,7.41l-60.783,80.663a9.924,9.924,0,0,1-7.994,3.982A9.912,9.912,0,0,1-2236.971,1820.5Zm-8.991-117.568a19.853,19.853,0,0,0-15.988,7.964l-12.036,15.973a19.866,19.866,0,0,0-3.823,14.818,19.869,19.869,0,0,0,7.76,13.19l15.972,12.037a19.83,19.83,0,0,0,12.021,4.028,19.851,19.851,0,0,0,15.989-7.965l12.036-15.972a20.024,20.024,0,0,0-3.937-28.01l-15.972-12.036a19.82,19.82,0,0,0-12.02-4.028h0Zm-1.059-59.837L-2023.145,1346l86.137,64.909-32.6,3.065,11.057,19.947-28.057,2.638,9.328,16.828-23.065,2.168,10.272,18.53-26.272,2.471,9.319,16.81-23.318,2.192,9.815,17.7-24.377,2.291,9.772,17.63-25.209,2.371,9.967,17.978-21.53,2.024,9.622,17.359-28.059,2.638,9.844,17.758-23.843,2.242,9.746,17.582-25.746,2.421,9.963,17.973-21.525,2.023,9.316,16.808-23.316,2.192,10.272,18.533-26.272,2.47,6.254,11.283-18.254,1.716,9.164,16.533v0Z"/><path class="d" d="M -2230.96044921875 1817.51171875 C -2229.34814453125 1817.51171875 -2227.927490234375 1816.8046875 -2226.9599609375 1815.520263671875 L -2166.176513671875 1734.857543945312 C -2165.36083984375 1733.775268554688 -2165.029296875 1732.494140625 -2165.2177734375 1731.153076171875 C -2165.403564453125 1729.830688476562 -2166.093505859375 1728.660034179688 -2167.160888671875 1727.85595703125 L -2254.2109375 1662.257934570312 C -2255.0986328125 1661.589233398438 -2256.1083984375 1661.250244140625 -2257.212646484375 1661.250244140625 C -2257.975341796875 1661.250244140625 -2258.73876953125 1661.42578125 -2259.4169921875 1661.756103515625 C -2260.137939453125 1662.108032226562 -2260.725830078125 1662.593994140625 -2261.214111328125 1663.241821289062 L -2321.997314453125 1743.904174804688 C -2323.65625 1746.105712890625 -2323.21435546875 1749.246826171875 -2321.01220703125 1750.906127929688 L -2233.961669921875 1816.50439453125 C -2233.074462890625 1817.1728515625 -2232.06494140625 1817.51171875 -2230.96044921875 1817.51171875 M -2250.960693359375 1698.422119140625 L -2250.9599609375 1694.43212890625 L -2244.59912109375 1697.965942382812 C -2239.63720703125 1698.231079101562 -2234.936767578125 1699.94580078125 -2230.931396484375 1702.96484375 L -2214.959228515625 1715.00048828125 C -2212.2685546875 1717.028076171875 -2210.053466796875 1719.52734375 -2208.375732421875 1722.4287109375 C -2206.758056640625 1725.226440429688 -2205.708740234375 1728.274658203125 -2205.257080078125 1731.48876953125 C -2204.805419921875 1734.702758789062 -2204.9736328125 1737.922119140625 -2205.757568359375 1741.057373046875 C -2206.570556640625 1744.308837890625 -2208.0107421875 1747.32177734375 -2210.038330078125 1750.012573242188 L -2222.07373046875 1765.984619140625 C -2226.8408203125 1772.311889648438 -2234.1240234375 1775.940795898438 -2242.0556640625 1775.940795898438 C -2247.5166015625 1775.940795898438 -2252.714111328125 1774.199829101562 -2257.08642578125 1770.905517578125 L -2273.05908203125 1758.868530273438 C -2278.38525390625 1754.853515625 -2281.83056640625 1748.998168945312 -2282.760498046875 1742.38134765625 C -2283.690673828125 1735.762939453125 -2281.99267578125 1729.184692382812 -2277.97900390625 1723.858032226562 L -2265.9423828125 1707.884399414062 C -2262.19775390625 1702.916015625 -2256.902587890625 1699.61181640625 -2250.960693359375 1698.422119140625 M -2180.515869140625 1686.946899414062 L -2181.9853515625 1684.296020507812 L -2174.3740234375 1683.580444335938 L -2163.7314453125 1682.579711914062 L -2166.279296875 1677.98291015625 L -2169.985595703125 1671.296508789062 L -2162.374267578125 1670.580810546875 L -2143.713134765625 1668.825927734375 L -2150.279296875 1656.979370117188 L -2153.985107421875 1650.293212890625 L -2146.3740234375 1649.577514648438 L -2130.6689453125 1648.100708007812 L -2136.279052734375 1637.978515625 L -2139.98486328125 1631.2919921875 L -2132.37353515625 1630.57666015625 L -2118.460205078125 1629.268798828125 L -2124.71630859375 1617.982788085938 L -2128.4228515625 1611.296264648438 L -2120.811279296875 1610.58056640625 L -2102.676513671875 1608.875244140625 L -2108.71630859375 1597.979248046875 L -2112.422607421875 1591.292846679688 L -2104.811279296875 1590.5771484375 L -2088.579833984375 1589.050903320312 L -2094.716796875 1577.979370117188 L -2098.42333984375 1571.292846679688 L -2090.811767578125 1570.577270507812 L -2070.36376953125 1568.654907226562 L -2076.279541015625 1557.982177734375 L -2079.985595703125 1551.295776367188 L -2072.374267578125 1550.580200195312 L -2058.456298828125 1549.271728515625 L -2064.716064453125 1537.97998046875 L -2068.4228515625 1531.293579101562 L -2060.81103515625 1530.577758789062 L -2043.213256835938 1528.9228515625 L -2049.279296875 1517.97900390625 L -2052.985595703125 1511.292358398438 L -2045.374145507812 1510.577026367188 L -2028.608642578125 1509.001098632812 L -2034.716430664062 1497.983032226562 L -2038.423095703125 1491.296508789062 L -2030.811401367188 1490.580810546875 L -2015.10498046875 1489.104125976562 L -2020.716918945312 1478.98046875 L -2024.42333984375 1472.294311523438 L -2016.812255859375 1471.578247070312 L -1998.151245117188 1469.822875976562 L -2004.716674804688 1457.978759765625 L -2008.42333984375 1451.292114257812 L -2000.8115234375 1450.57666015625 L -1985.358154296875 1449.1240234375 L -1990.97998046875 1438.982543945312 L -1994.686645507812 1432.296142578125 L -1987.074951171875 1431.580444335938 L -1966.629760742188 1429.658081054688 L -1973.97998046875 1416.39794921875 L -1977.686279296875 1409.71142578125 L -1970.074829101562 1408.995849609375 L -1950.319946289062 1407.138671875 L -2022.161010742188 1353.002685546875 L -2240.018798828125 1642.108154296875 L -2180.515869140625 1686.946899414062 M -2230.96044921875 1822.51171875 C -2233.14404296875 1822.51171875 -2235.22216796875 1821.815185546875 -2236.970703125 1820.49755859375 L -2324.021484375 1754.899291992188 C -2328.425048828125 1751.580932617188 -2329.308837890625 1745.298950195312 -2325.99072265625 1740.895263671875 L -2265.207275390625 1660.232788085938 C -2264.24609375 1658.957397460938 -2263.03564453125 1657.95849609375 -2261.610107421875 1657.2626953125 C -2260.250244140625 1656.600341796875 -2258.72998046875 1656.250244140625 -2257.212646484375 1656.250244140625 C -2255.029296875 1656.250244140625 -2252.951171875 1656.946899414062 -2251.202392578125 1658.264404296875 L -2164.15185546875 1723.86279296875 C -2162.017822265625 1725.470092773438 -2160.63818359375 1727.811889648438 -2160.266357421875 1730.45703125 C -2159.894775390625 1733.102172851562 -2160.5751953125 1735.732788085938 -2162.183349609375 1737.86669921875 L -2222.966796875 1818.529296875 C -2224.873046875 1821.06005859375 -2227.787109375 1822.51171875 -2230.96044921875 1822.51171875 Z M -2245.961669921875 1702.9287109375 L -2245.961669921875 1702.9296875 C -2252.30859375 1702.9296875 -2258.13525390625 1705.8330078125 -2261.949462890625 1710.893798828125 L -2273.98583984375 1726.866943359375 C -2277.1953125 1731.126586914062 -2278.553466796875 1736.388916015625 -2277.80908203125 1741.685424804688 C -2277.06494140625 1746.981079101562 -2274.30810546875 1751.66552734375 -2270.04931640625 1754.875854492188 L -2254.0771484375 1766.912475585938 C -2250.57958984375 1769.547607421875 -2246.422607421875 1770.940795898438 -2242.0556640625 1770.940795898438 C -2235.7080078125 1770.940795898438 -2229.880615234375 1768.037475585938 -2226.067138671875 1762.975830078125 L -2214.031494140625 1747.003540039062 C -2207.39501953125 1738.196166992188 -2209.16064453125 1725.63037109375 -2217.96826171875 1718.993774414062 L -2233.9404296875 1706.9580078125 C -2237.437744140625 1704.321899414062 -2241.593994140625 1702.9296875 -2245.9599609375 1702.9296875 L -2245.961669921875 1702.9287109375 Z M -2164.7431640625 1705.09326171875 L -2247.02099609375 1643.09228515625 L -2023.145141601562 1346.00048828125 L -1937.007934570312 1410.909301757812 L -1969.606811523438 1413.973876953125 L -1958.55029296875 1433.920532226562 L -1986.60693359375 1436.558471679688 L -1977.278442382812 1453.386596679688 L -2000.343627929688 1455.5546875 L -1990.071899414062 1474.084838867188 L -2016.343872070312 1476.556274414062 L -2007.025268554688 1493.366455078125 L -2030.343383789062 1495.558837890625 L -2020.52880859375 1513.263671875 L -2044.90625 1515.555053710938 L -2035.134033203125 1533.185180664062 L -2060.343017578125 1535.555786132812 L -2050.37646484375 1553.5341796875 L -2071.90625 1555.558227539062 L -2062.284423828125 1572.91748046875 L -2090.34375 1575.555297851562 L -2080.500244140625 1593.313232421875 L -2104.34326171875 1595.55517578125 L -2094.59716796875 1613.137573242188 L -2120.34326171875 1615.55859375 L -2110.38037109375 1633.531494140625 L -2131.90576171875 1635.5546875 L -2122.58984375 1652.363159179688 L -2145.906005859375 1654.555541992188 L -2135.63427734375 1673.08837890625 L -2161.90625 1675.558837890625 L -2155.652099609375 1686.842163085938 L -2173.906005859375 1688.558471679688 L -2164.7421875 1705.091430664062 L -2164.7431640625 1705.09326171875 Z"/></g></g></g></svg>