<svg xmlns="http://www.w3.org/2000/svg" xmlns:xlink="http://www.w3.org/1999/xlink" width="512" height="512" viewBox="0 0 512 512"><defs><style>.a{clip-path:url(#b);}.b{fill:none;}.c,.d{stroke:none;}.d{fill:#000;}</style><clipPath id="b"><rect width="512" height="512"/></clipPath></defs><g id="a" class="a"><g transform="translate(59.008 22.956)"><g class="b" transform="translate(2328 -1346)"><path class="c" d="M-2236.971,1820.5l-87.051-65.6a10.011,10.011,0,0,1-1.969-14l60.783-80.662a9.907,9.907,0,0,1,3.6-2.97,10.1,10.1,0,0,1,4.4-1.012,9.914,9.914,0,0,1,6.01,2.014l87.051,65.6a9.932,9.932,0,0,1,3.885,6.594,9.933,9.933,0,0,1-1.917,7.41l-60.783,80.663a9.924,9.924,0,0,1-7.994,3.982A9.912,9.912,0,0,1-2236.971,1820.5Zm-8.991-117.568a19.853,19.853,0,0,0-15.988,7.964l-12.036,15.973a19.866,19.866,0,0,0-3.823,14.818,19.869,19.869,0,0,0,7.76,13.19l15.972,12.037a19.83,19.83,0,0,0,12.021,4.028,19.851,19.851,0,0,0,15.989-7.965l12.036-15.972a20.024,20.024,0,0,0-3.937-28.01l-15.972-12.036a19.82,19.82,0,0,0-12.02-4.028h0Zm-1.059-59.837L-2023.145,1346l86.137,64.909-32.6,3.065,11.057,19.947-28.057,2.638,9.328,16.828-23.065,2.168,10.272,18.53-26.272,2.471,9.319,16.81-23.318,2.192,9.815,17.7-24.377,2.291,9.772,17.63-25.209,2.371,9.967,17.978-21.53,2.024,9.622,17.359-28.059,2.638,9.844,17.758-23.843,2.242,9.746,17.582-25.746,2.421,9.963,17.973-21.525,2.023,9.316,16.808-23.316,2.192,10.272,18.533-26.272,2.47,6.254,11.283-18.254,1.716,9.164,16.533v0Z"/><path class="d" d="M -2230.96044921875 1812.51171875 L -2230.953125 1812.51123046875 L -2170.170166015625 1731.84912109375 L -2257.220947265625 1666.2509765625 L -2318.003173828125 1746.9130859375 L -2230.974609375 1812.51123046875 L -2230.96044921875 1812.51171875 M -2245.963134765625 1692.9287109375 L -2245.9599609375 1692.9296875 C -2239.403564453125 1692.9296875 -2233.165771484375 1695.019287109375 -2227.92236328125 1698.971557617188 L -2211.9501953125 1711.007202148438 C -2205.55712890625 1715.824584960938 -2201.421630859375 1722.851196289062 -2200.3056640625 1730.79296875 C -2199.189697265625 1738.734375 -2201.227783203125 1746.628662109375 -2206.045166015625 1753.021606445312 L -2218.080322265625 1768.9931640625 C -2223.80078125 1776.586059570312 -2232.539306640625 1780.940795898438 -2242.0556640625 1780.940795898438 C -2248.61083984375 1780.940795898438 -2254.8486328125 1778.851684570312 -2260.095458984375 1774.898681640625 L -2276.06884765625 1762.861206054688 C -2282.46142578125 1758.04248046875 -2286.59619140625 1751.016235351562 -2287.7119140625 1743.0771484375 C -2288.82763671875 1735.136352539062 -2286.78955078125 1727.242431640625 -2281.97216796875 1720.848876953125 L -2269.935302734375 1704.875 C -2264.21435546875 1697.284423828125 -2255.476806640625 1692.930053710938 -2245.963134765625 1692.9287109375 M -2182.34521484375 1679.307861328125 L -2174.842041015625 1678.602416992188 L -2171.810546875 1678.3173828125 L -2178.064697265625 1667.034057617188 L -2162.842529296875 1665.602783203125 L -2151.792236328125 1664.563720703125 L -2154.65234375 1659.403198242188 L -2162.064208984375 1646.03076171875 L -2146.842041015625 1644.599487304688 L -2138.747802734375 1643.83837890625 L -2140.65234375 1640.402221679688 L -2148.06396484375 1627.029296875 L -2132.841552734375 1625.598510742188 L -2126.539794921875 1625.006225585938 L -2129.08935546875 1620.406860351562 L -2136.502197265625 1607.033935546875 L -2121.279541015625 1605.6025390625 L -2110.755859375 1604.612915039062 L -2113.08935546875 1600.403198242188 L -2120.502197265625 1587.030517578125 L -2105.279296875 1585.59912109375 L -2096.6591796875 1584.78857421875 L -2099.08984375 1580.403442382812 L -2106.502685546875 1567.0302734375 L -2091.27978515625 1565.599243164062 L -2078.443115234375 1564.392456054688 L -2080.652587890625 1560.406127929688 L -2088.064697265625 1547.033203125 L -2072.84228515625 1545.602172851562 L -2066.5361328125 1545.00927734375 L -2069.089111328125 1540.404296875 L -2076.50244140625 1527.031372070312 L -2061.279296875 1525.599731445312 L -2051.29248046875 1524.66064453125 L -2053.652587890625 1520.403076171875 L -2061.065185546875 1507.02978515625 L -2045.842041015625 1505.598876953125 L -2036.688354492188 1504.738525390625 L -2039.089477539062 1500.4072265625 L -2046.502685546875 1487.034057617188 L -2031.279418945312 1485.602783203125 L -2023.1845703125 1484.841674804688 L -2025.089965820312 1481.404663085938 L -2032.5029296875 1468.0322265625 L -2017.280395507812 1466.600219726562 L -2006.230590820312 1465.560668945312 L -2009.089721679688 1460.40283203125 L -2016.5029296875 1447.029541015625 L -2001.279418945312 1445.598510742188 L -1993.43798828125 1444.861450195312 L -1995.35302734375 1441.40673828125 L -2002.766235351562 1428.03369140625 L -1987.54296875 1426.602416992188 L -1974.709106445312 1425.395751953125 L -1978.35302734375 1418.822021484375 L -1985.765747070312 1405.448852539062 L -1970.542724609375 1404.017822265625 L -1963.631958007812 1403.3681640625 L -2021.177001953125 1360.005004882812 L -2233.0166015625 1641.124145507812 L -2182.34521484375 1679.307861328125 M -2230.96044921875 1822.51171875 C -2233.14404296875 1822.51171875 -2235.22216796875 1821.815185546875 -2236.970703125 1820.49755859375 L -2324.021484375 1754.899291992188 C -2328.425048828125 1751.580932617188 -2329.308837890625 1745.298950195312 -2325.99072265625 1740.895263671875 L -2265.207275390625 1660.232788085938 C -2264.24609375 1658.957397460938 -2263.03564453125 1657.95849609375 -2261.610107421875 1657.2626953125 C -2260.250244140625 1656.600341796875 -2258.72998046875 1656.250244140625 -2257.212646484375 1656.250244140625 C -2255.029296875 1656.250244140625 -2252.951171875 1656.946899414062 -2251.202392578125 1658.264404296875 L -2164.15185546875 1723.86279296875 C -2162.017822265625 1725.470092773438 -2160.63818359375 1727.811889648438 -2160.266357421875 1730.45703125 C -2159.894775390625 1733.102172851562 -2160.5751953125 1735.732788085938 -2162.183349609375 1737.86669921875 L -2222.966796875 1818.529296875 C -2224.873046875 1821.06005859375 -2227.787109375 1822.51171875 -2230.96044921875 1822.51171875 Z M -2245.961669921875 1702.9287109375 L -2245.961669921875 1702.9296875 C -2252.30859375 1702.9296875 -2258.13525390625 1705.8330078125 -2261.949462890625 1710.893798828125 L -2273.98583984375 1726.866943359375 C -2277.1953125 1731.126586914062 -2278.553466796875 1736.388916015625 -2277.80908203125 1741.685424804688 C -2277.06494140625 1746.981079101562 -2274.30810546875 1751.66552734375 -2270.04931640625 1754.875854492188 L -2254.0771484375 1766.912475585938 C -2250.57958984375 1769.547607421875 -2246.422607421875 1770.940795898438 -2242.0556640625 1770.940795898438 C -2235.7080078125 1770.940795898438 -2229.880615234375 1768.037475585938 -2226.067138671875 1762.975830078125 L -2214.031494140625 1747.003540039062 C -2207.39501953125 1738.196166992188 -2209.16064453125 1725.63037109375 -2217.96826171875 1718.993774414062 L -2233.9404296875 1706.9580078125 C -2237.437744140625 1704.321899414062 -2241.593994140625 1702.9296875 -2245.9599609375 1702.9296875 L -2245.961669921875 1702.9287109375 Z M -2164.7431640625 1705.09326171875 L -2247.02099609375 1643.09228515625 L -2023.145141601562 1346.00048828125 L -1937.007934570312 1410.909301757812 L -1969.606811523438 1413.973876953125 L -1958.55029296875 1433.920532226562 L -1986.60693359375 1436.558471679688 L -1977.278442382812 1453.386596679688 L -2000.343627929688 1455.5546875 L -1990.071899414062 1474.084838867188 L -2016.343872070312 1476.556274414062 L -2007.025268554688 1493.366455078125 L -2030.343383789062 1495.558837890625 L -2020.52880859375 1513.263671875 L -2044.90625 1515.555053710938 L -2035.134033203125 1533.185180664062 L -2060.343017578125 1535.555786132812 L -2050.37646484375 1553.5341796875 L -2071.90625 1555.558227539062 L -2062.284423828125 1572.91748046875 L -2090.34375 1575.555297851562 L -2080.500244140625 1593.313232421875 L -2104.34326171875 1595.55517578125 L -2094.59716796875 1613.137573242188 L -2120.34326171875 1615.55859375 L -2110.38037109375 1633.531494140625 L -2131.90576171875 1635.5546875 L -2122.58984375 1652.363159179688 L -2145.906005859375 1654.555541992188 L -2135.63427734375 1673.08837890625 L -2161.90625 1675.558837890625 L -2155.652099609375 1686.842163085938 L -2173.906005859375 1688.558471679688 L -2164.7421875 1705.091430664062 L -2164.7431640625 1705.09326171875 Z"/></g></g></g></svg>