<svg xmlns="http://www.w3.org/2000/svg" xmlns:xlink="http://www.w3.org/1999/xlink" width="512" height="512" viewBox="0 0 512 512"><defs><style>.a{clip-path:url(#b);}.b,.d{fill:none;}.b{stroke:#000;stroke-linecap:round;stroke-width:16px;}.c{stroke:none;}</style><clipPath id="b"><rect width="512" height="512"/></clipPath></defs><g id="a" class="a"><g transform="translate(62.528 30)"><path class="b" d="M4284-309c-45.532,67.251-90,0-90,0v-60s-195.4-325.607,136.3-330" transform="translate(-4136.83 699)"/><path class="b" d="M4194-309s44.468,67.251,90,0" transform="translate(-4046.528 699.111)"/><path class="b" d="M4194-309s44.468,67.251,90,0" transform="translate(-4046.528 699.111)"/><path class="b" d="M4183.131-309c45.532,67.251,90,0,90,0v-60s195.4-325.607-136.3-330" transform="translate(-3945.829 699.111)"/><path class="b" d="M4330-519v90" transform="translate(-4136.528 699)"/><g class="b" transform="translate(237.472 60)"><circle class="c" cx="30" cy="30" r="30"/><circle class="d" cx="30" cy="30" r="22"/></g><g class="b" transform="translate(87.472 60)"><circle class="c" cx="30" cy="30" r="30"/><circle class="d" cx="30" cy="30" r="22"/></g></g></g></svg>