<svg xmlns="http://www.w3.org/2000/svg" xmlns:xlink="http://www.w3.org/1999/xlink" width="512" height="512" viewBox="0 0 512 512"><defs><style>.a{clip-path:url(#b);}.b{fill:none;}.c,.d{stroke:none;}.d{fill:#000;}</style><clipPath id="b"><rect width="512" height="512"/></clipPath></defs><g id="a" class="a"><g transform="translate(60 30)"><g class="b"><path class="c" d="M195,0l46.033,171.885H390L269.483,278.115,315.517,450,195,343.769,74.483,450l46.033-171.885L0,171.885H148.967Z"/><path class="d" d="M 194.9999847412109 61.84829711914062 L 164.4220733642578 176.0238647460938 L 161.2455749511719 187.8847045898438 L 148.9667205810547 187.8847045898438 L 42.3485107421875 187.8847045898438 L 131.0965576171875 266.112548828125 L 138.5382843017578 272.6721496582031 L 135.9720001220703 282.2544250488281 L 103.6430358886719 402.9684753417969 L 184.4200744628906 331.7667236328125 L 195 322.44091796875 L 205.5799255371094 331.7667236328125 L 286.3569641113281 402.9684753417969 L 254.0279998779297 282.2544250488281 L 251.4617156982422 272.6721496582031 L 258.9034423828125 266.112548828125 L 347.6514892578125 187.8847045898438 L 241.0332183837891 187.8847045898438 L 228.7543640136719 187.8847045898438 L 225.5778503417969 176.0238647460938 L 194.9999847412109 61.84829711914062 M 195 0 L 241.0332183837891 171.8847045898438 L 390 171.8847045898438 L 269.4833679199219 278.1152954101562 L 315.5165710449219 450 L 195 343.7694396972656 L 74.48342895507812 450 L 120.5166320800781 278.1152954101562 L 0 171.8847045898438 L 148.9667205810547 171.8847045898438 L 195 0 Z"/></g></g></g></svg>