<svg xmlns="http://www.w3.org/2000/svg" xmlns:xlink="http://www.w3.org/1999/xlink" width="512" height="512" viewBox="0 0 512 512"><defs><style>.a{clip-path:url(#b);}.b{fill:none;}.c,.d{stroke:none;}.d{fill:#000;}</style><clipPath id="b"><rect width="512" height="512"/></clipPath></defs><g id="a" class="a"><g transform="translate(60 30)"><g class="b"><path class="c" d="M195,0l46.033,171.885H390L269.483,278.115,315.517,450,195,343.769,74.483,450l46.033-171.885L0,171.885H148.967Z"/><path class="d" d="M 195 38.65521240234375 L 158.6263275146484 174.4717407226562 L 156.6410064697266 181.8847351074219 L 148.9667358398438 181.8847351074219 L 26.46786499023438 181.8847351074219 L 127.1290588378906 270.613525390625 L 131.7801208496094 274.7132568359375 L 130.1762084960938 280.7022705078125 L 92.70816040039062 420.6053161621094 L 188.3875274658203 336.2677307128906 L 195 330.4390563964844 L 201.6124725341797 336.2677307128906 L 297.2918090820312 420.6052856445312 L 259.82373046875 280.7022705078125 L 258.2197875976562 274.7132568359375 L 262.870849609375 270.613525390625 L 363.5321350097656 181.8847351074219 L 241.0332641601562 181.8847351074219 L 233.3589935302734 181.8847351074219 L 231.3736724853516 174.4717407226562 L 195 38.65521240234375 M 195 0 L 241.0332641601562 171.8847351074219 L 390 171.8847351074219 L 269.4833374023438 278.1152648925781 L 315.5166015625 450 L 195 343.7694091796875 L 74.4833984375 450 L 120.5166015625 278.1152648925781 L 0 171.8847351074219 L 148.9667358398438 171.8847351074219 L 195 0 Z"/></g></g></g></svg>