<svg xmlns="http://www.w3.org/2000/svg" xmlns:xlink="http://www.w3.org/1999/xlink" width="512" height="512" viewBox="0 0 512 512"><defs><style>.a{clip-path:url(#b);}.b{fill:none;}.c,.d{stroke:none;}.d{fill:#000;}</style><clipPath id="b"><rect width="512" height="512"/></clipPath></defs><g id="a" class="a"><g transform="translate(39.5 37.65)"><g class="b" transform="translate(5820 -1346)"><path class="c" d="M-5641,1714h75l-37.5,64Zm-98.37-66.4,53.032,53.034-71.772,18.738Zm219.573,52.488,53.032-53.034,18.739,71.771Zm-182.345-36.682c-53.7-53.7-52.749-141.707,2.121-196.576s142.879-55.818,196.576-2.122,52.748,141.709-2.121,196.576a141.622,141.622,0,0,1-100.237,41.781A135.535,135.535,0,0,1-5702.141,1663.406ZM-5450,1526.851l64,37.5-64,37.5Zm-370,37.5,64-37.5v75Zm62.262-155.239,71.772,18.738L-5739,1480.885Zm238.278,18.579,71.772-18.738-18.739,71.771ZM-5641,1410l37.5-64,37.5,64Z"/><path class="d" d="M -5603.50048828125 1768.109741210938 L -5574.72509765625 1718.999755859375 L -5632.27490234375 1718.999755859375 L -5603.50048828125 1768.109741210938 M -5751.11572265625 1712.3798828125 L -5696.0419921875 1698.001098632812 L -5736.73583984375 1657.306030273438 L -5751.11572265625 1712.3798828125 M -5455.01904296875 1711.832397460938 L -5469.39794921875 1656.759765625 L -5510.09130859375 1697.454711914062 L -5455.01904296875 1711.832397460938 M -5605.80322265625 1698.0654296875 C -5597.10693359375 1698.064819335938 -5588.357421875 1697.215454101562 -5579.79736328125 1695.541015625 C -5571.15673828125 1693.850830078125 -5562.63916015625 1691.305786132812 -5554.4814453125 1687.9765625 C -5546.171875 1684.58544921875 -5538.15478515625 1680.347290039062 -5530.6533203125 1675.379638671875 C -5522.95068359375 1670.27880859375 -5515.69970703125 1664.346801757812 -5509.10107421875 1657.748657226562 C -5502.5927734375 1651.24072265625 -5496.7314453125 1644.0966796875 -5491.6796875 1636.514770507812 C -5486.75830078125 1629.128540039062 -5482.5439453125 1621.236938476562 -5479.154296875 1613.05908203125 C -5475.82666015625 1605.030395507812 -5473.2587890625 1596.64453125 -5471.52294921875 1588.134521484375 C -5469.8037109375 1579.706176757812 -5468.88525390625 1571.082885742188 -5468.79296875 1562.504272460938 C -5468.7001953125 1553.928344726562 -5469.4326171875 1545.32666015625 -5470.96923828125 1536.9384765625 C -5472.52001953125 1528.473876953125 -5474.90380859375 1520.152221679688 -5478.0546875 1512.204711914062 C -5481.2626953125 1504.11328125 -5485.29931640625 1496.326049804688 -5490.052734375 1489.059204101562 C -5494.93115234375 1481.6015625 -5500.62646484375 1474.598388671875 -5506.98046875 1468.244140625 C -5513.24609375 1461.978515625 -5520.14453125 1456.351928710938 -5527.4833984375 1451.520751953125 C -5534.63623046875 1446.81201171875 -5542.29931640625 1442.797973632812 -5550.259765625 1439.590087890625 C -5558.07861328125 1436.439208984375 -5566.26806640625 1434.03173828125 -5574.6005859375 1432.434326171875 C -5582.85595703125 1430.851928710938 -5591.3291015625 1430.049560546875 -5599.7841796875 1430.049560546875 C -5608.48046875 1430.049560546875 -5617.22998046875 1430.8984375 -5625.7900390625 1432.57275390625 C -5634.4306640625 1434.2626953125 -5642.9482421875 1436.807739257812 -5651.10595703125 1440.136962890625 C -5659.41552734375 1443.528198242188 -5667.43212890625 1447.7666015625 -5674.93359375 1452.734619140625 C -5682.6357421875 1457.835693359375 -5689.88671875 1463.767822265625 -5696.48486328125 1470.366577148438 C -5702.9931640625 1476.874633789062 -5708.85498046875 1484.018798828125 -5713.90673828125 1491.600830078125 C -5718.82861328125 1498.987182617188 -5723.04248046875 1506.878784179688 -5726.4326171875 1515.056762695312 C -5729.76025390625 1523.08544921875 -5732.328125 1531.471313476562 -5734.06396484375 1539.981323242188 C -5735.783203125 1548.409545898438 -5736.70166015625 1557.032836914062 -5736.79443359375 1565.611328125 C -5736.88671875 1574.187377929688 -5736.154296875 1582.788818359375 -5734.61767578125 1591.177001953125 C -5733.06689453125 1599.6416015625 -5730.68310546875 1607.963134765625 -5727.53173828125 1615.91064453125 C -5724.32373046875 1624.001831054688 -5720.287109375 1631.789184570312 -5715.53369140625 1639.055908203125 C -5710.6552734375 1646.513427734375 -5704.9599609375 1653.5166015625 -5698.60546875 1659.870971679688 C -5692.33984375 1666.136596679688 -5685.44287109375 1671.762939453125 -5678.10546875 1676.59375 C -5670.953125 1681.302612304688 -5663.29150390625 1685.316772460938 -5655.3330078125 1688.524536132812 C -5647.51513671875 1691.675415039062 -5639.3271484375 1694.0830078125 -5630.99560546875 1695.680419921875 C -5622.7412109375 1697.263061523438 -5614.26904296875 1698.0654296875 -5605.814453125 1698.0654296875 L -5605.80322265625 1698.0654296875 M -5445.00048828125 1593.125244140625 L -5395.890625 1564.35107421875 L -5445.00048828125 1535.57568359375 L -5445.00048828125 1593.125244140625 M -5761.00048828125 1593.125244140625 L -5761.00048828125 1535.575805664062 L -5810.10986328125 1564.35107421875 L -5761.00048828125 1593.125244140625 M -5736.36474609375 1471.180053710938 L -5695.6708984375 1430.48486328125 L -5750.74462890625 1416.106201171875 L -5736.36474609375 1471.180053710938 M -5469.060546875 1471.019653320312 L -5454.681640625 1415.946899414062 L -5509.75537109375 1430.32568359375 L -5469.060546875 1471.019653320312 M -5574.7255859375 1404.999267578125 L -5603.50048828125 1355.890747070312 L -5632.27490234375 1404.999267578125 L -5574.7255859375 1404.999267578125 M -5603.50048828125 1778.000122070312 L -5640.99951171875 1713.999755859375 L -5566.00048828125 1713.999755859375 L -5603.50048828125 1778.000122070312 Z M -5758.109375 1719.373413085938 L -5739.36962890625 1647.60107421875 L -5686.33740234375 1700.635009765625 L -5758.109375 1719.373413085938 Z M -5448.025390625 1718.82568359375 L -5519.79638671875 1700.088745117188 L -5466.76416015625 1647.054809570312 L -5448.025390625 1718.82568359375 Z M -5605.814453125 1703.0654296875 C -5640.8818359375 1703.0654296875 -5675.671875 1689.875854492188 -5702.14111328125 1663.406494140625 C -5755.83984375 1609.7080078125 -5754.89013671875 1521.699340820312 -5700.0205078125 1466.830932617188 C -5672.201171875 1439.010864257812 -5635.85107421875 1425.049560546875 -5599.7841796875 1425.049560546875 C -5564.71630859375 1425.049560546875 -5529.91650390625 1438.237670898438 -5503.44482421875 1464.708618164062 C -5449.74755859375 1518.407104492188 -5450.697265625 1606.417236328125 -5505.5654296875 1661.2841796875 C -5533.38623046875 1689.103393554688 -5569.73681640625 1703.062622070312 -5605.802734375 1703.0654296875 C -5605.8046875 1703.0654296875 -5605.8125 1703.0654296875 -5605.814453125 1703.0654296875 Z M -5450.00048828125 1601.849853515625 L -5450.00048828125 1526.850952148438 L -5386 1564.351196289062 L -5450.00048828125 1601.849853515625 Z M -5756.00048828125 1601.849853515625 L -5820.00048828125 1564.351196289062 L -5756.00048828125 1526.850952148438 L -5756.00048828125 1601.849853515625 Z M -5738.99853515625 1480.885009765625 L -5757.73828125 1409.112670898438 L -5685.96630859375 1427.85107421875 L -5738.99853515625 1480.885009765625 Z M -5466.4267578125 1480.724365234375 L -5519.46044921875 1427.69189453125 L -5447.68798828125 1408.953491210938 L -5466.4267578125 1480.724365234375 Z M -5566.00048828125 1409.999267578125 L -5640.99951171875 1409.999267578125 L -5603.50048828125 1346.00048828125 L -5566.00048828125 1409.999267578125 Z"/></g></g></g></svg>