<svg xmlns="http://www.w3.org/2000/svg" xmlns:xlink="http://www.w3.org/1999/xlink" width="512" height="512" viewBox="0 0 512 512"><defs><style>.a{clip-path:url(#b);}.b{fill:none;}.c,.d{stroke:none;}.d{fill:#000;}</style><clipPath id="b"><rect width="512" height="512"/></clipPath></defs><g id="a" class="a"><g transform="translate(39.5 37.65)"><g class="b" transform="translate(5820 -1346)"><path class="c" d="M-5641,1714h75l-37.5,64Zm-98.37-66.4,53.032,53.034-71.772,18.738Zm219.573,52.488,53.032-53.034,18.739,71.771Zm-182.345-36.682c-53.7-53.7-52.749-141.707,2.121-196.576s142.879-55.818,196.576-2.122,52.748,141.709-2.121,196.576a141.622,141.622,0,0,1-100.237,41.781A135.535,135.535,0,0,1-5702.141,1663.406ZM-5450,1526.851l64,37.5-64,37.5Zm-370,37.5,64-37.5v75Zm62.262-155.239,71.772,18.738L-5739,1480.885Zm238.278,18.579,71.772-18.738-18.739,71.771ZM-5641,1410l37.5-64,37.5,64Z"/><path class="d" d="M -5603.50048828125 1758.21923828125 L -5583.4501953125 1723.999755859375 L -5623.55029296875 1723.999755859375 L -5603.50048828125 1758.21923828125 M -5744.1220703125 1705.386352539062 L -5705.7470703125 1695.367309570312 L -5734.10205078125 1667.010864257812 L -5744.1220703125 1705.386352539062 M -5462.01220703125 1704.838989257812 L -5472.03173828125 1666.464721679688 L -5500.38671875 1694.82080078125 L -5462.01220703125 1704.838989257812 M -5605.802734375 1693.0654296875 L -5605.8037109375 1693.0654296875 C -5570.77685546875 1693.062622070312 -5537.689453125 1679.2646484375 -5512.63623046875 1654.213012695312 C -5461.7548828125 1603.33251953125 -5460.8037109375 1521.493286132812 -5510.515625 1471.77978515625 C -5534.2021484375 1448.093872070312 -5565.9052734375 1435.049560546875 -5599.78466796875 1435.049560546875 C -5634.80908203125 1435.049560546875 -5667.8955078125 1448.84765625 -5692.94970703125 1473.902099609375 C -5717.626953125 1498.578979492188 -5731.42236328125 1531.167724609375 -5731.79443359375 1565.665283203125 C -5732.166015625 1600.08154296875 -5719.12353515625 1632.282104492188 -5695.06982421875 1656.33544921875 C -5671.38427734375 1680.021118164062 -5639.68212890625 1693.0654296875 -5605.802734375 1693.0654296875 M -5440.00048828125 1584.400756835938 L -5405.78076171875 1564.350952148438 L -5440.00048828125 1544.300415039062 L -5440.00048828125 1584.400756835938 M -5766.00048828125 1584.400634765625 L -5766.00048828125 1544.300537109375 L -5800.2197265625 1564.35107421875 L -5766.00048828125 1584.400634765625 M -5733.73095703125 1461.47509765625 L -5705.3759765625 1433.118774414062 L -5743.7509765625 1423.099731445312 L -5733.73095703125 1461.47509765625 M -5471.6943359375 1461.31494140625 L -5461.67529296875 1422.9404296875 L -5500.05029296875 1432.959594726562 L -5471.6943359375 1461.31494140625 M -5583.4501953125 1399.999267578125 L -5603.50048828125 1365.781005859375 L -5623.5498046875 1399.999267578125 L -5583.4501953125 1399.999267578125 M -5603.50048828125 1778.000122070312 L -5640.99951171875 1713.999755859375 L -5566.00048828125 1713.999755859375 L -5603.50048828125 1778.000122070312 Z M -5758.109375 1719.373413085938 L -5739.36962890625 1647.60107421875 L -5686.33740234375 1700.635009765625 L -5758.109375 1719.373413085938 Z M -5448.025390625 1718.82568359375 L -5519.79638671875 1700.088745117188 L -5466.76416015625 1647.054809570312 L -5448.025390625 1718.82568359375 Z M -5605.814453125 1703.0654296875 C -5640.8818359375 1703.0654296875 -5675.671875 1689.875854492188 -5702.14111328125 1663.406494140625 C -5755.83984375 1609.7080078125 -5754.89013671875 1521.699340820312 -5700.0205078125 1466.830932617188 C -5672.201171875 1439.0107421875 -5635.85107421875 1425.049560546875 -5599.7841796875 1425.049560546875 C -5564.71630859375 1425.049560546875 -5529.91650390625 1438.237670898438 -5503.44482421875 1464.708618164062 C -5449.74755859375 1518.407104492188 -5450.697265625 1606.417236328125 -5505.5654296875 1661.2841796875 C -5533.38623046875 1689.103393554688 -5569.73681640625 1703.062622070312 -5605.802734375 1703.0654296875 C -5605.8046875 1703.0654296875 -5605.8125 1703.0654296875 -5605.814453125 1703.0654296875 Z M -5450.00048828125 1601.849853515625 L -5450.00048828125 1526.850952148438 L -5386 1564.351196289062 L -5450.00048828125 1601.849853515625 Z M -5756.00048828125 1601.849853515625 L -5820.00048828125 1564.351196289062 L -5756.00048828125 1526.850952148438 L -5756.00048828125 1601.849853515625 Z M -5738.99853515625 1480.885009765625 L -5757.73828125 1409.112670898438 L -5685.96630859375 1427.85107421875 L -5738.99853515625 1480.885009765625 Z M -5466.4267578125 1480.724365234375 L -5519.46044921875 1427.69189453125 L -5447.68798828125 1408.953491210938 L -5466.4267578125 1480.724365234375 Z M -5566.00048828125 1409.999267578125 L -5640.99951171875 1409.999267578125 L -5603.50048828125 1346.00048828125 L -5566.00048828125 1409.999267578125 Z"/></g></g></g></svg>