<svg xmlns="http://www.w3.org/2000/svg" xmlns:xlink="http://www.w3.org/1999/xlink" width="512" height="512" viewBox="0 0 512 512"><defs><style>.a{clip-path:url(#b);}.b{fill:none;}.c,.d{stroke:none;}.d{fill:#000;}</style><clipPath id="b"><rect width="512" height="512"/></clipPath></defs><g id="a" class="a"><g transform="translate(30 30)"><g class="b" transform="translate(582 -729)"><path class="c" d="M-222,1180V730h90v450Zm-180,0V730h90v450Zm-180-1V729h90v450Z"/><path class="d" d="M -142.0003051757812 1169.999877929688 L -142.0003051757812 739.9999389648438 L -212.0003051757812 739.9999389648438 L -212.0003051757812 1169.999877929688 L -142.0003051757812 1169.999877929688 M -322.0003051757812 1169.999877929688 L -322.0003051757812 739.9999389648438 L -392.0003051757812 739.9999389648438 L -392.0003051757812 1169.999877929688 L -322.0003051757812 1169.999877929688 M -502.0003051757812 1169 L -502.0003051757812 739 L -572.0003051757812 739 L -572.0003051757812 1169 L -502.0003051757812 1169 M -132.0003051757812 1179.999877929688 L -222.0003051757812 1179.999877929688 L -222.0003051757812 729.9999389648438 L -132.0003051757812 729.9999389648438 L -132.0003051757812 1179.999877929688 Z M -312.0003051757812 1179.999877929688 L -402.0003051757812 1179.999877929688 L -402.0003051757812 729.9999389648438 L -312.0003051757812 729.9999389648438 L -312.0003051757812 1179.999877929688 Z M -492.0003051757812 1179 L -582.0003051757812 1179 L -582.0003051757812 729 L -492.0003051757812 729 L -492.0003051757812 1179 Z"/></g></g></g></svg>